<?xml version="1.0" encoding="UTF-8"?>
<svg width="1517px" height="1517px" viewBox="0 0 1517 1517" version="1.1" xmlns="http://www.w3.org/2000/svg" xmlns:xlink="http://www.w3.org/1999/xlink">
    <!-- Generator: Sketch 39.1 (31720) - http://www.bohemiancoding.com/sketch -->
    <title>Artboard</title>
    <desc>Created with Sketch.</desc>
    <defs></defs>
    <g id="Page-1" stroke="none" stroke-width="1" fill="none" fill-rule="evenodd">
        <g id="logo" transform="translate(-6468.000000, 0.000000)">
            <g id="Calque_2" transform="translate(3744.000000, 0.000000)">
                <g id="Group" transform="translate(2728.000000, 0.000000)">
                    <path d="M1461.264,754.72 C1461.264,364.529 1144.952,48.217 754.762,48.217 C364.572,48.217 48.258,364.529 48.258,754.72 C48.258,1144.914 364.571,1461.225 754.762,1461.225 C1144.951,1461.225 1461.264,1144.914 1461.264,754.72 L1461.264,754.72 Z" id="Shape" fill="#FFFFFF"></path>
                    <path d="M754.762,1509.222 C652.909,1509.222 554.1,1489.272 461.073,1449.924 C371.225,1411.924 290.538,1357.52 221.249,1288.235 C151.962,1218.948 97.561,1138.26 59.559,1048.412 C20.212,955.383 0.262,856.573 0.262,754.721 C0.262,652.87 20.212,554.058 59.559,461.031 C97.561,371.184 151.962,290.497 221.249,221.208 C290.538,151.92 371.226,97.52 461.073,59.519 C554.1,20.17 652.91,0.221 754.762,0.221 C856.613,0.221 955.424,20.17 1048.451,59.519 C1138.298,97.52 1218.986,151.921 1288.273,221.208 C1357.558,290.497 1411.961,371.185 1449.964,461.031 C1489.31,554.058 1509.26,652.87 1509.26,754.721 C1509.26,856.573 1489.31,955.384 1449.964,1048.412 C1411.961,1138.26 1357.558,1218.949 1288.273,1288.235 C1218.986,1357.521 1138.297,1411.924 1048.451,1449.924 C955.424,1489.272 856.612,1509.222 754.762,1509.222 L754.762,1509.222 Z M754.762,60.744 C661.071,60.744 570.188,79.091 484.639,115.275 C402.002,150.227 327.784,200.267 264.047,264.004 C200.309,327.741 150.27,401.96 115.317,484.597 C79.132,570.145 60.786,661.028 60.786,754.72 C60.786,848.412 79.133,939.296 115.317,1024.845 C150.27,1107.482 200.309,1181.699 264.047,1245.437 C327.783,1309.176 402.002,1359.215 484.639,1394.168 C570.188,1430.351 661.071,1448.697 754.762,1448.697 C848.453,1448.697 939.336,1430.351 1024.885,1394.168 C1107.52,1359.214 1181.739,1309.175 1245.477,1245.437 C1309.214,1181.699 1359.253,1107.482 1394.207,1024.845 C1430.39,939.297 1448.737,848.412 1448.737,754.72 C1448.737,661.029 1430.389,570.146 1394.207,484.597 C1359.253,401.96 1309.214,327.742 1245.477,264.004 C1181.739,200.267 1107.52,150.227 1024.885,115.275 C939.336,79.091 848.453,60.744 754.762,60.744 L754.762,60.744 Z" id="Shape" fill="#4E71BA"></path>
                </g>
            </g>
            <g id="Calque_1" transform="translate(0.000000, 170.000000)">
                <path d="M6803.692,1034.364 L7613.15,1034.364 L7478.447,179.512 C7478.447,179.512 7462.495,117.775 7411.444,117.775 C7360.393,117.775 7342.444,174.775 7342.444,174.775 C7342.444,174.775 7335.711,117.775 7279.444,117.775 C7223.177,117.775 7208.202,162.775 7208.202,162.775 C7208.202,162.775 7201.673,117.775 7141.421,117.775 C7081.169,117.775 7071.444,167.775 7071.444,167.775 C7071.444,167.775 7055.061,118.618 7006.444,117.775 C6957.827,116.932 6938.394,179.512 6938.394,179.512 L6803.692,1034.364 L6803.692,1034.364 Z" id="Shape" fill="#DCEEEF"></path>
                <path d="M6942.095,162.232 C6942.095,162.232 6968.933,0.049 7221.189,0.049 C7473.445,0.049 7478.445,162.232 7478.445,162.232 C7478.445,162.232 7461.445,117.775 7411.445,117.775 C7361.445,117.775 7342.078,173.444 7347.024,172.775 C7351.97,172.106 7315.445,120.775 7279.445,117.775 C7243.445,114.775 7207.788,172.775 7207.788,172.775 C7207.788,172.775 7190.445,117.775 7143.445,117.775 C7096.445,117.775 7068.697,173.522 7074.021,172.775 C7079.345,172.028 7046.445,118.775 7010.445,117.775 C6974.445,116.775 6942.095,162.232 6942.095,162.232 L6942.095,162.232 Z" id="Shape" fill="#4E71BA"></path>
                <path d="M7409.414,101.077 C7380.789,101.077 7356.375,116.231 7342.062,138.12 C7327.75,116.231 7303.335,101.077 7274.711,101.077 C7246.086,101.077 7221.672,116.231 7207.359,138.12 C7193.047,116.231 7168.632,101.077 7140.007,101.077 C7111.383,101.077 7086.968,116.231 7072.656,138.12 C7058.344,116.231 7033.928,101.077 7005.304,101.077 C6961.526,101.077 6925.325,137.278 6925.325,181.057 C6925.325,187.791 6931.219,193.684 6937.954,193.684 C6944.688,193.684 6950.582,187.791 6950.582,181.057 C6950.582,150.748 6974.997,126.334 7005.305,126.334 C7035.614,126.334 7060.028,150.748 7060.028,181.057 C7060.028,187.791 7065.922,193.684 7072.657,193.684 C7079.392,193.684 7085.285,187.791 7085.285,181.057 C7085.285,157.483 7099.597,138.119 7120.644,129.702 C7127.379,181.899 7132.431,214.733 7135.798,239.989 C7140.007,271.981 7142.533,289.661 7145.901,315.76 C7124.012,341.017 7019.618,462.249 7011.199,540.545 C7011.199,543.912 7012.041,548.121 7014.566,550.648 C7017.092,553.173 7021.301,554.857 7024.669,554.857 C7028.879,554.857 7128.222,550.648 7211.568,470.669 C7294.074,550.648 7394.258,554.857 7398.467,554.857 C7401.835,554.857 7406.044,553.173 7408.57,550.648 C7411.096,548.122 7411.938,543.913 7411.938,540.545 C7402.677,462.249 7298.283,340.175 7277.236,315.76 C7280.603,280.401 7284.813,250.935 7294.074,191.16 C7296.599,174.322 7299.125,154.959 7302.493,133.07 C7319.331,142.33 7331.117,160.853 7331.117,181.058 C7331.117,187.792 7337.01,193.685 7343.745,193.685 C7350.48,193.685 7356.374,187.792 7356.374,181.058 C7356.374,150.749 7380.788,126.335 7411.097,126.335 C7441.405,126.335 7465.82,150.749 7465.82,181.058 C7465.82,187.792 7471.714,193.685 7478.448,193.685 C7485.183,193.685 7491.077,187.792 7491.077,181.058 C7489.394,137.278 7453.192,101.077 7409.414,101.077 L7409.414,101.077 Z M7267.135,186.95 C7257.874,250.934 7253.664,279.558 7250.297,319.126 C7250.297,322.494 7251.139,325.861 7253.664,328.387 C7254.506,330.072 7362.268,448.778 7383.315,527.915 C7352.165,522.864 7279.762,506.026 7220.83,444.568 L7220.83,444.568 L7220.83,444.568 C7219.988,443.726 7219.988,443.726 7219.146,443.726 C7218.304,442.884 7217.462,442.884 7216.621,442.041 C7215.779,442.041 7214.937,442.041 7214.096,441.199 L7211.571,441.199 L7209.045,441.199 C7208.204,441.199 7207.361,441.199 7206.52,442.041 C7205.678,442.041 7204.836,442.884 7203.995,443.726 C7203.153,443.726 7202.31,444.568 7202.31,444.568 L7202.31,444.568 L7202.31,444.568 C7143.378,506.026 7071.818,523.706 7039.826,527.915 C7060.873,448.777 7167.794,330.071 7169.477,328.387 C7172.002,325.862 7172.844,321.653 7172.844,318.284 C7169.477,289.66 7166.95,271.138 7161.9,236.621 C7158.533,211.364 7153.481,178.532 7146.746,126.334 C7174.528,128.859 7195.576,152.432 7195.576,181.057 C7195.576,187.791 7201.469,193.684 7208.204,193.684 C7214.939,193.684 7220.833,187.791 7220.833,181.057 C7220.833,150.748 7245.247,126.334 7275.556,126.334 L7276.398,126.334 C7272.186,149.907 7269.66,170.112 7267.135,186.95 L7267.135,186.95 Z" id="Shape" fill="#4E71BA"></path>
                <path d="M6803.692,1034.364 C6797.172,1010.818 6938.394,179.512 6938.394,179.512 C6938.394,179.512 6958.505,0.049 7208.202,0.049 C7457.899,0.049 7478.447,179.512 7478.447,179.512 C7478.447,179.512 7627.128,1013.241 7613.15,1034.364 C7599.173,1055.485 6810.212,1057.909 6803.692,1034.364 L6803.692,1034.364 Z" id="Shape" stroke="#4E71BA" stroke-width="25"></path>
                <path d="M6874.455,810.143 L6937.556,409.687" id="Shape" stroke="#4E71BA" stroke-width="15"></path>
                <path d="M6911.96,741.1 L6959.174,445.237" id="Shape" stroke="#4E71BA" stroke-width="14"></path>
                <ellipse id="Oval" fill="#BDE1E5" cx="7249.759" cy="72.657" rx="10.666" ry="4.556"></ellipse>
                <ellipse id="Oval" fill="#BDE1E5" cx="7175.089" cy="72.656" rx="10.666" ry="4.556"></ellipse>
                <ellipse id="Oval" fill="#BDE1E5" cx="7210.523" cy="44.308" rx="10.666" ry="4.556"></ellipse>
            </g>
        </g>
        <g id="Artboard"></g>
    </g>
</svg>