<svg id="Calque_1" data-name="Calque 1" xmlns="http://www.w3.org/2000/svg" xmlns:xlink="http://www.w3.org/1999/xlink" viewBox="0 0 100 100"><defs><style>.cls-1{fill:url(#Dégradé_sans_nom_13);}.cls-2{fill:#fff;fill-opacity:0.62;}</style><linearGradient id="Dégradé_sans_nom_13" y1="100" x2="100" gradientUnits="userSpaceOnUse"><stop offset="0" stop-color="#68a8de"/><stop offset="0.08" stop-color="#72afe1"/><stop offset="0.49" stop-color="#9dceef"/><stop offset="0.81" stop-color="#b8e2f8"/><stop offset="1" stop-color="#c2e9fb"/></linearGradient></defs><title>link</title><rect class="cls-1" width="100" height="100"/><path class="cls-2" d="M74.4,47.25L63.74,57.91a14.89,14.89,0,0,1-23.6-3l5-5a3.55,3.55,0,0,1,.8-0.53,7.41,7.41,0,0,0,1.86,3.2,7.54,7.54,0,0,0,10.66,0L69.06,41.92A7.54,7.54,0,0,0,58.41,31.27l-3.79,3.79A18.9,18.9,0,0,0,45,34l8.07-8.07A15.07,15.07,0,0,1,74.4,47.25ZM46.22,64.77l-3.79,3.79A7.54,7.54,0,0,1,31.77,57.91L42.43,47.25a7.54,7.54,0,0,1,10.66,0,7.46,7.46,0,0,1,1.86,3.19,3.61,3.61,0,0,0,.8-0.53l5-5a14.83,14.83,0,0,0-2.29-3,15.07,15.07,0,0,0-21.31,0L26.44,52.58A15.07,15.07,0,1,0,47.75,73.9l8.08-8.08A18.89,18.89,0,0,1,46.22,64.77Z"/></svg>