<svg width="44" height="41" viewBox="0 0 44 41" version="1.1" xmlns="http://www.w3.org/2000/svg" xmlns:xlink="http://www.w3.org/1999/xlink" xmlns:figma="http://www.figma.com/figma/ns">
<title>Idee</title>
<desc>Created using Figma</desc>
<g id="Canvas" transform="translate(-149 -3456)" figma:type="canvas">
<g id="Idee" style="mix-blend-mode:normal;" figma:type="frame">
<g id="Artboard" style="mix-blend-mode:normal;" figma:type="frame">
<g id="Combined-Shape" style="mix-blend-mode:normal;" figma:type="vector">
<use xlink:href="#path0_stroke" transform="translate(151.474 3458)" style="mix-blend-mode:normal;"/>
</g>
</g>
</g>
</g>
<defs>
<path id="path0_stroke" d="M 3.1139 19.4145L 4.06334 20.5757L 5.30571 19.56L 4.20854 18.3889L 3.1139 19.4145ZM 19.523 3.11548L 18.5004 4.21283L 19.523 5.16588L 20.5457 4.21283L 19.523 3.11548ZM 36.115 19.2147L 34.9968 18.2149L 33.9261 19.4124L 35.194 20.3987L 36.115 19.2147ZM 36.1466 19.2393L 37.2106 20.2967L 38.4045 19.0953L 37.0676 18.0554L 36.1466 19.2393ZM 19.4899 36L 18.4238 37.0551L 19.4877 38.1302L 20.5539 37.0574L 19.4899 36ZM 3.09276 19.4317L 2.14332 18.2705L 0.866338 19.3145L 2.02661 20.4869L 3.09276 19.4317ZM 4.20854 18.3889C 2.43816 16.5326 1.46954 14.2847 1.5 11.5436L -1.5 11.5436C -1.46954 14.8862 -0.0740587 18.1723 2.01926 20.44L 4.20854 18.3889ZM 1.5 11.5436C 1.5 6.0033 6.01432 1.5 11.5978 1.5L 11.5978 -1.5C 4.37074 -1.5 -1.5 4.3332 -1.5 11.5436L 1.5 11.5436ZM 11.5978 1.5C 14.3634 1.46988 16.6328 2.44123 18.5004 4.21283L 20.5457 2.01814C 18.2663 -0.0750111 14.9616 -1.46988 11.5978 -1.5L 11.5978 1.5ZM 20.5457 4.21283C 22.4133 2.44123 24.6826 1.46988 27.4482 1.5L 27.4482 -1.5C 24.0845 -1.46988 20.7798 -0.0750107 18.5004 2.01814L 20.5457 4.21283ZM 27.4482 1.5C 33.0318 1.5 37.5461 6.0033 37.5461 11.5436L 40.5461 11.5436C 40.5461 4.3332 34.6753 -1.5 27.4482 -1.5L 27.4482 1.5ZM 37.5461 11.5436C 37.5746 14.1969 36.6677 16.3783 34.9968 18.2149L 37.2332 20.2145C 39.209 17.9726 40.5175 14.7797 40.5461 11.5436L 37.5461 11.5436ZM 35.194 20.3987L 35.2256 20.4233L 37.0676 18.0554L 37.0359 18.0307L 35.194 20.3987ZM 35.0827 18.182L 18.426 34.9426L 20.5539 37.0574L 37.2106 20.2967L 35.0827 18.182ZM 20.5561 34.9449L 4.15891 18.3766L 2.02661 20.4869L 18.4238 37.0551L 20.5561 34.9449ZM 4.0422 20.593L 4.06334 20.5757L 2.16446 18.2532L 2.14332 18.2705L 4.0422 20.593Z"/>
</defs>
</svg>
