<?xml version="1.0" encoding="utf-8"?>
<!-- Generator: Adobe Illustrator 19.0.0, SVG Export Plug-In . SVG Version: 6.00 Build 0)  -->
<svg version="1.1" id="Layer_1" xmlns="http://www.w3.org/2000/svg" xmlns:xlink="http://www.w3.org/1999/xlink" x="0px" y="0px"
	 viewBox="-223 51.7 243.6 458.6" style="enable-background:new -223 51.7 243.6 458.6;" xml:space="preserve">
<style type="text/css">
	.st0{fill:#E6E6E6;}
	.st1{fill:#78B591;}
	.st2{opacity:0.1;enable-background:new    ;}
	.st3{fill:#D4EBE9;}
	.st4{fill:#666666;}
	.st5{fill:#5D9172;}
	.st6{fill:#4D4D4D;}
	.st7{fill:#FFFFFF;}
</style>
<g>
	<path class="st0" d="M-9.3,155.5c0,12.4-10,22.5-22.2,22.5h-139.3c-12.3,0-22.2-10.1-22.2-22.5v-6c0-12.4,10-22.5,22.2-22.5h139.3
		c12.3,0,22.2,10.1,22.2,22.5V155.5z"/>
</g>
<path class="st1" d="M-198.8,138.3c-7.6,0-13.8-6.3-13.8-14V86.6c0-19.3,15.5-34.9,34.6-34.9h153.7c19.1,0,34.6,15.7,34.6,34.9v37.7
	c0,7.7-6.2,14-13.8,14L-198.8,138.3L-198.8,138.3z"/>
<path class="st2" d="M-167.5,124.4V86.6c0-19.3,15.5-34.9,34.6-34.9h-45.2c-19.1,0-34.6,15.7-34.6,34.9v37.7c0,7.7,6.2,14,13.8,14
	h45.2C-161.3,138.3-167.5,132.1-167.5,124.4z"/>
<path class="st3" d="M20.6,487.2c0,12.7-10.2,23.1-22.8,23.1h-197.9c-12.6,0-22.8-10.3-22.8-23.1V194.8c0-12.8,10.2-23.1,22.8-23.1
	H-2.2c12.6,0,22.8,10.3,22.8,23.1L20.6,487.2L20.6,487.2z"/>
<path class="st2" d="M-178.3,487.2V194.8c0-12.8,10.2-23.1,22.8-23.1h-44.7c-12.6,0-22.8,10.3-22.8,23.1v292.4
	c0,12.7,10.2,23.1,22.8,23.1h44.7C-168,510.3-178.3,500-178.3,487.2z"/>
<rect x="-192.6" y="314.9" class="st4" width="182.7" height="164.7"/>
<g>
	<path class="st5" d="M-144,92.3h-10.5c-4.5,0-8.1-3.6-8.1-8.1s3.6-8.1,8.1-8.1h10.5c4.5,0,8.1,3.6,8.1,8.1S-139.6,92.3-144,92.3z"
		/>
	<path class="st5" d="M-95.9,92.3h-10.5c-4.5,0-8.1-3.6-8.1-8.1s3.6-8.1,8.1-8.1h10.5c4.5,0,8.1,3.6,8.1,8.1
		C-87.8,88.7-91.5,92.3-95.9,92.3z"/>
	<path class="st5" d="M-47.8,92.3h-10.5c-4.5,0-8.1-3.6-8.1-8.1s3.6-8.1,8.1-8.1h10.5c4.5,0,8.1,3.6,8.1,8.1
		C-39.8,88.7-43.4,92.3-47.8,92.3z"/>
</g>
<g>
	<path class="st6" d="M-177,337.3h-12c-1.3,0-2.5,0.3-3.6,0.8v14.5c1.1,0.5,2.3,0.8,3.6,0.8h12c4.5,0,8.1-3.6,8.1-8.1
		C-169,340.9-172.6,337.3-177,337.3z"/>
	<path class="st6" d="M-134.4,353.4h12c4.5,0,8.1-3.6,8.1-8.1c0-4.5-3.6-8.1-8.1-8.1h-12c-4.5,0-8.1,3.6-8.1,8.1
		C-142.5,349.8-138.9,353.4-134.4,353.4z"/>
	<path class="st6" d="M-79.9,353.4h12c4.5,0,8.1-3.6,8.1-8.1c0-4.5-3.6-8.1-8.1-8.1h-12c-4.5,0-8.1,3.6-8.1,8.1
		C-88,349.8-84.4,353.4-79.9,353.4z"/>
	<path class="st6" d="M-162.2,388.9h12c4.5,0,8.1-3.6,8.1-8.1c0-4.5-3.6-8.1-8.1-8.1h-12c-4.5,0-8.1,3.6-8.1,8.1
		C-170.3,385.2-166.7,388.9-162.2,388.9z"/>
	<path class="st6" d="M-107.7,388.9h12c4.5,0,8.1-3.6,8.1-8.1c0-4.5-3.6-8.1-8.1-8.1h-12c-4.5,0-8.1,3.6-8.1,8.1
		C-115.8,385.2-112.1,388.9-107.7,388.9z"/>
	<path class="st6" d="M-53.1,388.9h12c4.5,0,8.1-3.6,8.1-8.1c0-4.5-3.6-8.1-8.1-8.1h-12c-4.5,0-8.1,3.6-8.1,8.1
		C-61.2,385.2-57.6,388.9-53.1,388.9z"/>
	<path class="st6" d="M-177,406.7h-12c-1.3,0-2.5,0.3-3.6,0.8v14.5c1.1,0.5,2.3,0.8,3.6,0.8h12c4.5,0,8.1-3.6,8.1-8.1
		C-169,410.3-172.6,406.7-177,406.7z"/>
	<path class="st6" d="M-9.8,338.1c-1.1-0.5-2.3-0.8-3.6-0.8h-12c-4.5,0-8.1,3.6-8.1,8.1c0,4.5,3.6,8.1,8.1,8.1h12
		c1.3,0,2.5-0.3,3.6-0.8V338.1z"/>
	<path class="st6" d="M-122.5,406.7h-12c-4.5,0-8.1,3.6-8.1,8.1s3.6,8.1,8.1,8.1h12c4.5,0,8.1-3.6,8.1-8.1
		C-114.4,410.3-118,406.7-122.5,406.7z"/>
	<path class="st6" d="M-67.9,406.7h-12c-4.5,0-8.1,3.6-8.1,8.1s3.6,8.1,8.1,8.1h12c4.5,0,8.1-3.6,8.1-8.1
		C-59.9,410.3-63.5,406.7-67.9,406.7z"/>
	<path class="st6" d="M-9.8,407.6c-1.1-0.5-2.3-0.8-3.6-0.8h-12c-4.5,0-8.1,3.6-8.1,8.1s3.6,8.1,8.1,8.1h12c1.3,0,2.5-0.3,3.6-0.8
		V407.6z"/>
	<path class="st6" d="M-150.3,442.2h-12c-4.5,0-8.1,3.6-8.1,8.1c0,4.5,3.6,8.1,8.1,8.1h12c4.5,0,8.1-3.6,8.1-8.1
		C-142.2,445.8-145.8,442.2-150.3,442.2z"/>
	<path class="st6" d="M-95.7,442.2h-12c-4.5,0-8.1,3.6-8.1,8.1c0,4.5,3.6,8.1,8.1,8.1h12c4.5,0,8.1-3.6,8.1-8.1
		C-87.6,445.8-91.3,442.2-95.7,442.2z"/>
	<path class="st6" d="M-41.2,442.2h-12c-4.5,0-8.1,3.6-8.1,8.1c0,4.5,3.6,8.1,8.1,8.1h12c4.5,0,8.1-3.6,8.1-8.1
		C-33.1,445.8-36.7,442.2-41.2,442.2z"/>
</g>
<g>
	<path class="st7" d="M-49.3,210.6c14.3,5.9,19.1,10.7,25,25c5.9-14.3,10.7-19.1,25-25c-14.3-5.9-19.1-10.7-25-25
		C-30.2,199.9-35,204.7-49.3,210.6z"/>
	<circle class="st7" cx="-8.3" cy="250.9" r="11"/>
</g>
</svg>
