<?xml version="1.0" encoding="utf-8"?>
<!-- Generator: Adobe Illustrator 19.0.0, SVG Export Plug-In . SVG Version: 6.00 Build 0)  -->
<svg version="1.1" id="Layer_1" xmlns="http://www.w3.org/2000/svg" xmlns:xlink="http://www.w3.org/1999/xlink" x="0px" y="0px"
	 viewBox="-223 50.9 251.8 460.3" style="enable-background:new -223 50.9 251.8 460.3;" xml:space="preserve">
<style type="text/css">
	.st0{fill:#E6E6E6;}
	.st1{fill:#78B591;}
	.st2{opacity:0.1;enable-background:new    ;}
	.st3{fill:#D4EBE9;}
	.st4{fill:#666666;}
	.st5{fill:#4D4D4D;}
	.st6{fill:#FFFFFF;}
</style>
<g>
	<path class="st0" d="M-8,159.3c0,12-9.6,21.8-21.5,21.8h-135c-11.9,0-21.5-9.8-21.5-21.8v-5.8c0-12,9.6-21.8,21.5-21.8h135
		c11.9,0,21.5,9.8,21.5,21.8L-8,159.3L-8,159.3z"/>
</g>
<path class="st1" d="M-191.7,142.7c-7.4,0-13.4-6.1-13.4-13.5V92.6c0-18.7,15.1-33.9,33.6-33.9h149C-4.1,58.7,11,73.9,11,92.6v36.6
	c0,7.5-6,13.5-13.4,13.5H-191.7z"/>
<path class="st2" d="M-161.4,129.2V92.6c0-18.7,15.1-33.9,33.6-33.9h-43.8c-18.5,0-33.6,15.2-33.6,33.9v36.6c0,7.5,6,13.5,13.4,13.5
	h43.8C-155.3,142.7-161.4,136.6-161.4,129.2z"/>
<path class="st3" d="M21,480.9c0,12.4-9.9,22.4-22.1,22.4H-193c-12.2,0-22.1-10-22.1-22.4V197.5c0-12.4,9.9-22.4,22.1-22.4H-1.1
	c12.2,0,22.1,10,22.1,22.4L21,480.9L21,480.9z"/>
<path class="st2" d="M-171.8,480.9V197.5c0-12.4,9.9-22.4,22.1-22.4H-193c-12.2,0-22.1,10-22.1,22.4v283.4
	c0,12.4,9.9,22.4,22.1,22.4h43.4C-161.9,503.3-171.8,493.3-171.8,480.9z"/>
<rect x="-185.6" y="313.8" class="st4" width="177.1" height="159.6"/>
<g>
	<path class="st5" d="M-129.3,351.2h11.6c4.3,0,7.8-3.5,7.8-7.8s-3.5-7.8-7.8-7.8h-11.6c-4.3,0-7.8,3.5-7.8,7.8
		S-133.6,351.2-129.3,351.2z"/>
	<path class="st5" d="M-76.4,351.2h11.6c4.3,0,7.8-3.5,7.8-7.8s-3.5-7.8-7.8-7.8h-11.6c-4.3,0-7.8,3.5-7.8,7.8
		S-80.8,351.2-76.4,351.2z"/>
	<path class="st5" d="M-156.3,385.6h11.6c4.3,0,7.8-3.5,7.8-7.8s-3.5-7.8-7.8-7.8h-11.6c-4.3,0-7.8,3.5-7.8,7.8
		S-160.6,385.6-156.3,385.6z"/>
	<path class="st5" d="M-103.4,385.6h11.6c4.3,0,7.8-3.5,7.8-7.8s-3.5-7.8-7.8-7.8h-11.6c-4.3,0-7.8,3.5-7.8,7.8
		S-107.7,385.6-103.4,385.6z"/>
	<path class="st5" d="M-50.5,385.6h11.6c4.3,0,7.8-3.5,7.8-7.8s-3.5-7.8-7.8-7.8h-11.6c-4.3,0-7.8,3.5-7.8,7.8
		S-54.8,385.6-50.5,385.6z"/>
	<path class="st5" d="M-117.7,402.9h-11.6c-4.3,0-7.8,3.5-7.8,7.8s3.5,7.8,7.8,7.8h11.6c4.3,0,7.8-3.5,7.8-7.8
		S-113.4,402.9-117.7,402.9z"/>
	<path class="st5" d="M-64.9,402.9h-11.6c-4.3,0-7.8,3.5-7.8,7.8s3.5,7.8,7.8,7.8h11.6c4.3,0,7.8-3.5,7.8-7.8
		C-57,406.4-60.5,402.9-64.9,402.9z"/>
	<path class="st5" d="M-144.7,437.2h-11.6c-4.3,0-7.8,3.5-7.8,7.8s3.5,7.8,7.8,7.8h11.6c4.3,0,7.8-3.5,7.8-7.8
		S-140.3,437.2-144.7,437.2z"/>
	<path class="st5" d="M-91.8,437.2h-11.6c-4.3,0-7.8,3.5-7.8,7.8s3.5,7.8,7.8,7.8h11.6c4.3,0,7.8-3.5,7.8-7.8
		C-84,440.7-87.5,437.2-91.8,437.2z"/>
	<path class="st5" d="M-38.9,437.2h-11.6c-4.3,0-7.8,3.5-7.8,7.8s3.5,7.8,7.8,7.8h11.6c4.3,0,7.8-3.5,7.8-7.8
		S-34.6,437.2-38.9,437.2z"/>
	<path class="st5" d="M-8.5,403.7c-1-0.5-2.2-0.8-3.4-0.8h-11.6c-4.3,0-7.8,3.5-7.8,7.8s3.5,7.8,7.8,7.8H-12c1.2,0,2.4-0.3,3.4-0.8
		V403.7z"/>
	<path class="st5" d="M-8.5,336.3c-1-0.5-2.2-0.8-3.4-0.8h-11.6c-4.3,0-7.8,3.5-7.8,7.8s3.5,7.8,7.8,7.8H-12c1.2,0,2.4-0.3,3.4-0.8
		V336.3z"/>
	<path class="st5" d="M-170.6,335.5h-11.6c-1.2,0-2.4,0.3-3.4,0.8v14.1c1,0.5,2.2,0.8,3.4,0.8h11.6c4.3,0,7.8-3.5,7.8-7.8
		C-162.8,339-166.3,335.5-170.6,335.5z"/>
	<path class="st5" d="M-170.6,402.9h-11.6c-1.2,0-2.4,0.3-3.4,0.8v14.1c1,0.5,2.2,0.8,3.4,0.8h11.6c4.3,0,7.8-3.5,7.8-7.8
		C-162.8,406.4-166.3,402.9-170.6,402.9z"/>
</g>
<g>
	<path class="st6" d="M-52.4,219.3c14.3,5.9,19.1,10.7,25,25c5.9-14.3,10.7-19.1,25-25c-14.3-5.9-19.1-10.7-25-25
		C-33.3,208.6-38.1,213.4-52.4,219.3z"/>
	<circle class="st6" cx="-11.4" cy="259.6" r="11"/>
</g>
<path d="M-138.6,82.4h-10.2c-4.3,0-7.8,3.5-7.8,7.8s3.5,7.8,7.8,7.8h10.2c4.3,0,7.8-3.5,7.8-7.8S-134.3,82.4-138.6,82.4z"/>
<path d="M-92,82.4h-10.2c-4.3,0-7.8,3.5-7.8,7.8s3.5,7.8,7.8,7.8H-92c4.3,0,7.8-3.5,7.8-7.8S-87.7,82.4-92,82.4z"/>
<path d="M-45.4,82.4h-10.2c-4.3,0-7.8,3.5-7.8,7.8s3.5,7.8,7.8,7.8h10.2c4.3,0,7.8-3.5,7.8-7.8S-41,82.4-45.4,82.4z"/>
<path d="M-0.2,167.3v-16.9c10.7-1.1,19-10.2,19-21.3V92.6c0-23-18.6-41.7-41.4-41.7h-149c-22.8,0-41.4,18.7-41.4,41.7v36.6
	c0,11,8.3,20.1,19,21.3v16.9c-16.1,0.5-29,13.9-29,30.2v283.4c0,16.7,13.4,30.2,30,30.2H-1.1c16.5,0,30-13.6,30-30.2v-226
	c0-4.3-3.5-7.8-7.8-7.8s-7.8,3.5-7.8,7.8v226c0,8-6.4,14.5-14.3,14.5H-193c-7.9,0-14.3-6.5-14.3-14.5V197.5c0-8,6.4-14.5,14.3-14.5
	H-1.1c7.9,0,14.3,6.5,14.3,14.5v17.7c0,4.3,3.5,7.8,7.8,7.8s7.8-3.5,7.8-7.8v-17.7C28.8,181.1,15.9,167.8-0.2,167.3z M-2.4,134.9
	h-121.3c-4.3,0-7.8,3.5-7.8,7.8c0,4.3,3.5,7.8,7.8,7.8h107.9v16.7h-162.4v-16.7h15.9c4.3,0,7.8-3.5,7.8-7.8s-3.5-7.8-7.8-7.8h-29.3
	c-3.1,0-5.6-2.6-5.6-5.7V92.6c0-14.4,11.5-26,25.7-26h149c14.2,0,25.7,11.7,25.7,26v36.6C3.1,132.3,0.6,134.9-2.4,134.9z"/>
<path d="M-8.5,306h-177.1c-4.3,0-7.8,3.5-7.8,7.8v159.6c0,4.3,3.5,7.8,7.8,7.8H-8.5c4.3,0,7.8-3.5,7.8-7.8V313.8
	C-0.7,309.5-4.2,306-8.5,306z M-16.4,465.6h-161.4v-144h161.4V465.6z"/>
</svg>
