<?xml version="1.0" encoding="utf-8"?>
<!-- Generator: Adobe Illustrator 19.0.0, SVG Export Plug-In . SVG Version: 6.00 Build 0)  -->
<svg version="1.1" id="Layer_1" xmlns="http://www.w3.org/2000/svg" xmlns:xlink="http://www.w3.org/1999/xlink" x="0px" y="0px"
	 viewBox="37.2 50.9 251.8 460.3" style="enable-background:new 37.2 50.9 251.8 460.3;" xml:space="preserve">
<style type="text/css">
	.st0{fill:#E6E6E6;}
	.st1{fill:#FFEA92;}
	.st2{opacity:0.1;enable-background:new    ;}
	.st3{fill:#D4EBE9;}
	.st4{fill:#FFFFFF;}
	.st5{fill:#CCCCCC;}
</style>
<g>
	<path class="st0" d="M252.1,159.3c0,12-9.6,21.8-21.5,21.8h-135c-11.9,0-21.5-9.8-21.5-21.8v-5.8c0-12,9.6-21.8,21.5-21.8h135
		c11.9,0,21.5,9.8,21.5,21.8L252.1,159.3L252.1,159.3z"/>
</g>
<path class="st1" d="M68.4,142.7c-7.4,0-13.4-6.1-13.4-13.5V92.6c0-18.7,15.1-33.9,33.6-33.9h149c18.5,0,33.6,15.2,33.6,33.9v36.6
	c0,7.5-6,13.5-13.4,13.5H68.4z"/>
<path class="st2" d="M98.8,129.2V92.6c0-18.7,15.1-33.9,33.6-33.9H88.6C70.1,58.7,55,73.9,55,92.6v36.6c0,7.5,6,13.5,13.4,13.5h43.8
	C104.8,142.7,98.8,136.6,98.8,129.2z"/>
<path class="st3" d="M281.2,480.9c0,12.4-9.9,22.4-22.1,22.4H67.1c-12.2,0-22.1-10-22.1-22.4V197.5c0-12.4,9.9-22.4,22.1-22.4H259
	c12.2,0,22.1,10,22.1,22.4L281.2,480.9L281.2,480.9z"/>
<path class="st2" d="M88.4,480.9V197.5c0-12.4,9.9-22.4,22.1-22.4H67.1c-12.2,0-22.1,10-22.1,22.4v283.4c0,12.4,9.9,22.4,22.1,22.4
	h43.4C98.3,503.3,88.4,493.3,88.4,480.9z"/>
<path class="st4" d="M251.6,326.5c0-15.8-12.7-28.7-28.4-28.7c-13.5,0-24.8,9.6-27.7,22.4c-2.5-12.9-13.8-22.6-27.3-22.6
	c-11.7,0-21.7,7.3-25.8,17.6c-0.4-18.7-15.4-33.7-34-33.7c-18.1,0-32.9,14.3-33.9,32.3l-0.1,0v159.6h177.1
	C251.6,473.5,251.6,327.1,251.6,326.5z"/>
<g>
	<ellipse class="st5" cx="115.1" cy="344.1" rx="14.3" ry="14.4"/>
	<ellipse class="st5" cx="149.1" cy="393.5" rx="14.3" ry="14.4"/>
	<ellipse class="st5" cx="106.9" cy="438.9" rx="14.3" ry="14.4"/>
	<ellipse class="st5" cx="213.7" cy="438.9" rx="14.3" ry="14.4"/>
	<ellipse class="st5" cx="196.7" cy="359.2" rx="14.3" ry="14.4"/>
</g>
<g>
	<path class="st4" d="M209.4,219.3c14.3,5.9,19.1,10.7,25,25c5.9-14.3,10.7-19.1,25-25c-14.3-5.9-19.1-10.7-25-25
		C228.5,208.6,223.7,213.4,209.4,219.3z"/>
	<circle class="st4" cx="250.3" cy="259.6" r="11"/>
</g>
<path d="M172.9,82.4h-19.6c-4.3,0-7.8,3.5-7.8,7.8s3.5,7.8,7.8,7.8h19.6c4.3,0,7.8-3.5,7.8-7.8S177.2,82.4,172.9,82.4z"/>
<path d="M281.2,218.8c4.3,0,7.8-3.5,7.8-7.8v-13.5c0-16.3-12.9-29.7-29-30.2v-16.9c10.7-1.1,19-10.2,19-21.3V92.6
	c0-23-18.6-41.7-41.4-41.7h-149c-22.8,0-41.4,18.7-41.4,41.7v36.6c0,11,8.3,20.1,19,21.3v16.9c-16.1,0.5-29,13.9-29,30.2v283.4
	c0,16.7,13.4,30.2,30,30.2H259c16.5,0,30-13.6,30-30.2V249.7c0-4.3-3.5-7.8-7.8-7.8s-7.8,3.5-7.8,7.8v231.3c0,8-6.4,14.5-14.3,14.5
	H67.1c-7.9,0-14.3-6.5-14.3-14.5V197.5c0-8,6.4-14.5,14.3-14.5H259c7.9,0,14.3,6.5,14.3,14.5V211
	C273.3,215.3,276.8,218.8,281.2,218.8z M257.7,134.9H149c-4.3,0-7.8,3.5-7.8,7.8c0,4.3,3.5,7.8,7.8,7.8h95.3v16.7H81.9v-16.7h28.5
	c4.3,0,7.8-3.5,7.8-7.8s-3.5-7.8-7.8-7.8H68.4c-3.1,0-5.6-2.6-5.6-5.7V92.6c0-14.4,11.5-26,25.7-26h149c14.2,0,25.7,11.7,25.7,26
	v36.6C263.3,132.3,260.8,134.9,257.7,134.9z"/>
<path d="M223.3,290c-10.8,0-20.8,4.9-27.5,12.8c-6.6-8-16.6-13.1-27.5-13.1c-8.3,0-16,2.8-22.2,7.8c-6.8-14.1-21.2-23.9-37.6-23.9
	c-21.8,0-39.8,16.9-41.7,38.6c-0.1,0.5-0.2,1-0.2,1.6v159.6c0,4.3,3.5,7.8,7.8,7.8h177.1c4.3,0,7.8-3.5,7.8-7.8v-147
	C259.5,306.4,243.2,290,223.3,290z M243.8,465.6H82.4V314.8c0-0.2,0-0.4,0.1-0.6c0.8-14,12.3-24.9,26.1-24.9
	c14.1,0,25.9,11.7,26.1,26c0.1,3.7,2.8,6.9,6.4,7.6c3.7,0.7,7.3-1.3,8.7-4.8c3.1-7.7,10.4-12.7,18.5-12.7c9.5,0,17.8,6.9,19.6,16.3
	c0.7,3.6,3.9,6.3,7.6,6.3c0,0,0.1,0,0.1,0c3.7,0,6.9-2.6,7.7-6.2c2.1-9.4,10.5-16.3,20-16.3c11.3,0,20.5,9.3,20.5,20.8L243.8,465.6
	L243.8,465.6L243.8,465.6z"/>
</svg>
