<?xml version="1.0" encoding="iso-8859-1"?>
<!-- Generator: Adobe Illustrator 19.0.0, SVG Export Plug-In . SVG Version: 6.00 Build 0)  -->
<svg version="1.1" id="Layer_1" xmlns="http://www.w3.org/2000/svg" xmlns:xlink="http://www.w3.org/1999/xlink" x="0px" y="0px"
	 viewBox="0 0 202.888 202.888" style="enable-background:new 0 0 202.888 202.888;" xml:space="preserve">
<g>
	<g>
		<g>
			<path d="M148.883,77.458l-5.225-5.225l-7.261,7.261L69.981,4.696c-2.585-2.912-6.116-4.579-9.943-4.693
				c-3.814-0.074-7.491,1.353-10.271,4.134L5.019,48.885c-2.791,2.791-4.267,6.439-4.153,10.269
				c0.114,3.816,1.788,7.348,4.712,9.944l74.797,66.416l-7.312,7.312l5.225,5.225l10.08-10.08c0.001-0.002,0.004-0.002,0.004-0.002
				l50.478-50.478L148.883,77.458z M85.61,130.281L10.486,63.575c-1.387-1.232-2.181-2.879-2.234-4.639
				c-0.052-1.775,0.655-3.489,1.992-4.826L54.992,9.362c1.279-1.277,2.919-1.976,4.639-1.976c0.061,0,0.125,0.002,0.188,0.004
				c1.77,0.052,3.417,0.839,4.639,2.214l66.705,75.125L85.61,130.281z"/>
			<path d="M146.488,90.305c-1.443-1.443-3.781-1.443-5.225,0l-50.076,50.076c-1.443,1.443-1.443,3.781,0,5.225
				c8.124,8.124,18.732,12.212,29.197,12.212c9.946,0,19.763-3.693,27.192-11.123C162.823,131.449,162.336,106.151,146.488,90.305z
				 M142.351,141.471c-11.521,11.52-30.207,11.88-43.188,1.386l44.575-44.575C154.235,111.264,153.874,129.948,142.351,141.471z"/>
			<path d="M35.756,72.589c0,2.04,1.655,3.695,3.695,3.695h62.814c2.04,0,3.695-1.655,3.695-3.695c0-2.041-1.655-3.695-3.695-3.695
				H39.451C37.411,68.894,35.756,70.549,35.756,72.589z"/>
			
				<rect x="171.807" y="134.093" transform="matrix(-0.9487 -0.3163 0.3163 -0.9487 306.4637 325.3188)" width="15.653" height="7.391"/>
			
				<rect x="157.469" y="162.13" transform="matrix(-0.3164 -0.9486 0.9486 -0.3164 50.9346 376.6143)" width="7.39" height="15.651"/>
			
				<rect x="112.689" y="174.737" transform="matrix(-0.9487 -0.3163 0.3163 -0.9487 178.4079 385.823)" width="15.653" height="7.391"/>
			
				<rect x="149.638" y="193.212" transform="matrix(-0.9487 -0.3163 0.3163 -0.9487 244.5654 433.5098)" width="15.653" height="7.391"/>
			<rect x="189.413" y="172.351" width="12.615" height="7.39"/>
		</g>
	</g>
</g>
<g>
</g>
<g>
</g>
<g>
</g>
<g>
</g>
<g>
</g>
<g>
</g>
<g>
</g>
<g>
</g>
<g>
</g>
<g>
</g>
<g>
</g>
<g>
</g>
<g>
</g>
<g>
</g>
<g>
</g>
</svg>
