<?xml version="1.0" encoding="utf-8"?>
<!-- Generator: Adobe Illustrator 19.0.0, SVG Export Plug-In . SVG Version: 6.00 Build 0)  -->
<svg version="1.1" id="Layer_1" xmlns="http://www.w3.org/2000/svg" xmlns:xlink="http://www.w3.org/1999/xlink" x="0px" y="0px"
	 viewBox="45.4 51.7 243.6 458.6" style="enable-background:new 45.4 51.7 243.6 458.6;" xml:space="preserve">
<style type="text/css">
	.st0{fill:#E6E6E6;}
	.st1{fill:#FFEA92;}
	.st2{opacity:0.1;enable-background:new    ;}
	.st3{fill:#D4EBE9;}
	.st4{fill:#E0C924;}
	.st5{fill:#FFFFFF;}
	.st6{fill:#CCCCCC;}
</style>
<g>
	<path class="st0" d="M259.1,155.5c0,12.4-10,22.5-22.2,22.5H97.5c-12.3,0-22.2-10.1-22.2-22.5v-6c0-12.4,10-22.5,22.2-22.5h139.3
		c12.3,0,22.2,10.1,22.2,22.5V155.5z"/>
</g>
<path class="st1" d="M69.6,138.3c-7.6,0-13.8-6.3-13.8-14V86.6c0-19.3,15.5-34.9,34.6-34.9h153.7c19.1,0,34.6,15.7,34.6,34.9v37.7
	c0,7.7-6.2,14-13.8,14L69.6,138.3L69.6,138.3z"/>
<path class="st2" d="M100.9,124.4V86.6c0-19.3,15.5-34.9,34.6-34.9H90.3c-19.1,0-34.6,15.7-34.6,34.9v37.7c0,7.7,6.2,14,13.8,14
	h45.2C107.1,138.3,100.9,132.1,100.9,124.4z"/>
<path class="st3" d="M289,487.2c0,12.7-10.2,23.1-22.8,23.1H68.2c-12.6,0-22.8-10.3-22.8-23.1V194.8c0-12.8,10.2-23.1,22.8-23.1
	h197.9c12.6,0,22.8,10.3,22.8,23.1V487.2z"/>
<path class="st2" d="M90.1,487.2V194.8c0-12.8,10.2-23.1,22.8-23.1H68.2c-12.6,0-22.8,10.3-22.8,23.1v292.4
	c0,12.7,10.2,23.1,22.8,23.1H113C100.4,510.3,90.1,500,90.1,487.2z"/>
<path class="st4" d="M177.3,92.3h-20.2c-4.5,0-8.1-3.6-8.1-8.1s3.6-8.1,8.1-8.1h20.2c4.5,0,8.1,3.6,8.1,8.1S181.8,92.3,177.3,92.3z"
	/>
<path class="st5" d="M258.5,327.9c0-16.3-13.1-29.6-29.3-29.6c-14,0-25.6,9.9-28.5,23.1c-2.6-13.3-14.2-23.3-28.2-23.3
	c-12,0-22.3,7.5-26.6,18.1c-0.4-19.2-15.9-34.7-35.1-34.7c-18.7,0-33.9,14.7-35,33.3l-0.1,0v164.7h182.7
	C258.5,479.5,258.5,328.5,258.5,327.9z"/>
<g>
	<ellipse class="st6" cx="117.7" cy="346" rx="14.7" ry="14.9"/>
	<ellipse class="st6" cx="152.7" cy="397.1" rx="14.7" ry="14.9"/>
	<ellipse class="st6" cx="109.2" cy="443.9" rx="14.7" ry="14.9"/>
	<ellipse class="st6" cx="219.4" cy="443.9" rx="14.7" ry="14.9"/>
	<ellipse class="st6" cx="201.8" cy="361.6" rx="14.7" ry="14.9"/>
</g>
<g>
	<path class="st5" d="M221.3,210.6c14.3,5.9,19.1,10.7,25,25c5.9-14.3,10.7-19.1,25-25c-14.3-5.9-19.1-10.7-25-25
		C240.4,199.9,235.6,204.7,221.3,210.6z"/>
	<circle class="st5" cx="262.3" cy="250.9" r="11"/>
</g>
</svg>
