<?xml version="1.0" encoding="utf-8"?>
<!-- Generator: Adobe Illustrator 16.0.4, SVG Export Plug-In . SVG Version: 6.00 Build 0)  -->
<!DOCTYPE svg PUBLIC "-//W3C//DTD SVG 1.1//EN" "http://www.w3.org/Graphics/SVG/1.1/DTD/svg11.dtd">
<svg version="1.1" xmlns="http://www.w3.org/2000/svg" xmlns:xlink="http://www.w3.org/1999/xlink" x="0px" y="0px"
	 width="2517.783px" height="2606.157px" viewBox="5911.009 -1415.607 2517.783 2606.157"
	 enable-background="new 5911.009 -1415.607 2517.783 2606.157" xml:space="preserve">
<g id="Calque_2">
	<g>
		<path fill="#3D9BAE" d="M5220.264-154.28c0-390.191-316.312-706.503-706.502-706.503c-390.19,0-706.504,316.312-706.504,706.503
			c0,390.194,316.313,706.505,706.504,706.505C4903.951,552.225,5220.264,235.914,5220.264-154.28z"/>
		<path fill="#4E71BA" d="M4513.762,600.222c-101.853,0-200.662-19.95-293.689-59.298c-89.848-38-170.535-92.404-239.824-161.689
			c-69.287-69.287-123.688-149.975-161.69-239.823c-39.347-93.029-59.297-191.839-59.297-293.691
			c0-101.851,19.95-200.663,59.297-293.69c38.002-89.847,92.403-170.534,161.69-239.823
			c69.289-69.288,149.977-123.688,239.824-161.689c93.027-39.349,191.837-59.298,293.689-59.298
			c101.851,0,200.662,19.949,293.689,59.298c89.847,38.001,170.535,92.402,239.822,161.689
			c69.285,69.289,123.688,149.977,161.691,239.823c39.346,93.027,59.296,191.839,59.296,293.69
			c0,101.852-19.95,200.663-59.296,293.691c-38.003,89.848-92.406,170.537-161.691,239.823
			c-69.287,69.286-149.976,123.689-239.822,161.689C4714.424,580.272,4615.612,600.222,4513.762,600.222z M4513.762-848.256
			c-93.691,0-184.574,18.347-270.123,54.531c-82.637,34.952-156.855,84.992-220.592,148.729
			c-63.738,63.737-113.777,137.956-148.73,220.593c-36.185,85.548-54.531,176.431-54.531,270.123
			c0,93.692,18.347,184.576,54.531,270.125c34.953,82.637,84.992,156.854,148.73,220.592
			c63.736,63.739,137.955,113.778,220.592,148.731c85.549,36.183,176.432,54.529,270.123,54.529s184.574-18.346,270.123-54.529
			c82.635-34.954,156.854-84.993,220.592-148.731c63.737-63.738,113.776-137.955,148.73-220.592
			c36.183-85.548,54.53-176.433,54.53-270.125c0-93.691-18.348-184.574-54.53-270.123c-34.954-82.637-84.993-156.855-148.73-220.593
			c-63.738-63.737-137.957-113.777-220.592-148.729C4698.336-829.909,4607.453-848.256,4513.762-848.256z"/>
	</g>
	<g>
		<path fill="#FFFFFF" d="M7948.264-154.28c0-390.191-316.312-706.503-706.502-706.503c-390.19,0-706.504,316.312-706.504,706.503
			c0,390.194,316.313,706.505,706.504,706.505C7631.951,552.225,7948.264,235.914,7948.264-154.28z"/>
		<path fill="#4E71BA" d="M7241.762,600.222c-101.853,0-200.662-19.95-293.689-59.298c-89.848-38-170.535-92.404-239.824-161.689
			c-69.287-69.287-123.688-149.975-161.69-239.823c-39.347-93.029-59.297-191.839-59.297-293.691
			c0-101.851,19.95-200.663,59.297-293.69c38.002-89.847,92.403-170.534,161.69-239.823
			c69.289-69.288,149.977-123.688,239.824-161.689c93.027-39.349,191.837-59.298,293.689-59.298
			c101.851,0,200.662,19.949,293.689,59.298c89.847,38.001,170.535,92.402,239.822,161.689
			c69.285,69.289,123.688,149.977,161.691,239.823c39.346,93.027,59.296,191.839,59.296,293.69
			c0,101.852-19.95,200.663-59.296,293.691c-38.003,89.848-92.406,170.537-161.691,239.823
			c-69.287,69.286-149.976,123.689-239.822,161.689C7442.424,580.272,7343.612,600.222,7241.762,600.222z M7241.762-848.256
			c-93.691,0-184.574,18.347-270.123,54.531c-82.637,34.952-156.855,84.992-220.592,148.729
			c-63.738,63.737-113.777,137.956-148.73,220.593c-36.185,85.548-54.531,176.431-54.531,270.123
			c0,93.692,18.347,184.576,54.531,270.125c34.953,82.637,84.992,156.854,148.73,220.592
			c63.736,63.739,137.955,113.778,220.592,148.731c85.549,36.183,176.432,54.529,270.123,54.529s184.574-18.346,270.123-54.529
			c82.635-34.954,156.854-84.993,220.592-148.731c63.737-63.738,113.776-137.955,148.73-220.592
			c36.183-85.548,54.53-176.433,54.53-270.125c0-93.691-18.348-184.574-54.53-270.123c-34.954-82.637-84.993-156.855-148.73-220.593
			c-63.738-63.737-137.957-113.777-220.592-148.729C7426.336-829.909,7335.453-848.256,7241.762-848.256z"/>
	</g>
</g>
<g id="Calque_1">
	<path fill="#DCEEEF" d="M4090.692,295.364h809.458l-134.703-854.852c0,0-15.952-61.737-67.003-61.737s-69,57-69,57s-6.733-57-63-57
		s-71.242,45-71.242,45s-6.529-45-66.781-45s-69.977,50-69.977,50s-16.383-49.157-65-50s-68.05,61.737-68.05,61.737
		L4090.692,295.364z"/>
	<path fill="#4E71BA" d="M4229.095-576.768c0,0,26.838-162.183,279.094-162.183s257.256,162.183,257.256,162.183
		s-17-44.457-67-44.457s-69.367,55.669-64.421,55s-31.579-52-67.579-55s-71.657,55-71.657,55s-17.343-55-64.343-55
		s-74.748,55.747-69.424,55s-27.576-54-63.576-55S4229.095-576.768,4229.095-576.768z"/>
	<path d="M218.891,1024.849c28.625,0,53.039-15.154,67.352-37.043c14.312,21.889,38.727,37.043,67.351,37.043
		c28.625,0,53.039-15.154,67.352-37.043c14.312,21.889,38.727,37.043,67.352,37.043c28.624,0,53.039-15.154,67.351-37.043
		c14.312,21.889,38.728,37.043,67.352,37.043c43.778,0,79.979-36.201,79.979-79.979c0-6.735-5.894-12.628-12.629-12.628
		c-6.734,0-12.628,5.893-12.628,12.628c0,30.309-24.415,54.723-54.723,54.723c-30.309,0-54.723-24.414-54.723-54.723
		c0-6.735-5.894-12.628-12.629-12.628s-12.628,5.893-12.628,12.628c0,23.573-14.312,42.937-35.359,51.355
		c-6.735-52.197-11.787-85.031-15.154-110.287c-4.209-31.992-6.735-49.672-10.103-75.771
		c21.889-25.257,126.283-146.489,134.702-224.785c0-3.367-0.842-7.576-3.367-10.103c-2.526-2.525-6.735-4.209-10.103-4.209
		c-4.21,0-103.553,4.209-186.899,84.188c-82.506-79.979-182.69-84.188-186.899-84.188c-3.368,0-7.577,1.684-10.103,4.209
		c-2.526,2.526-3.368,6.735-3.368,10.103c9.261,78.296,113.655,200.37,134.702,224.785c-3.367,35.359-7.577,64.825-16.838,124.6
		c-2.525,16.838-5.051,36.201-8.419,58.091c-16.838-9.261-28.624-27.783-28.624-47.988c0-6.735-5.893-12.628-12.628-12.628
		s-12.629,5.893-12.629,12.628c0,30.309-24.414,54.723-54.723,54.723c-30.308,0-54.723-24.414-54.723-54.723
		c0-6.735-5.894-12.628-12.628-12.628c-6.735,0-12.629,5.893-12.629,12.628C138.911,988.648,175.112,1024.849,218.891,1024.849z
		 M361.17,938.977c9.261-63.984,13.471-92.608,16.838-132.177c0-3.368-0.842-6.735-3.367-9.261
		c-0.842-1.685-108.604-120.391-129.651-199.528c31.15,5.051,103.553,21.889,162.485,83.347l0,0l0,0
		c0.842,0.842,0.842,0.842,1.684,0.842c0.842,0.842,1.684,0.842,2.525,1.685c0.842,0,1.684,0,2.525,0.842c0.842,0,1.684,0,2.525,0
		c0.843,0,1.685,0,2.526,0s1.684,0,2.525-0.842c0.842,0,1.684-0.843,2.525-1.685c0.842,0,1.685-0.842,1.685-0.842l0,0l0,0
		c58.932-61.458,130.492-79.138,162.484-83.347c-21.047,79.138-127.968,197.844-129.651,199.528
		c-2.525,2.525-3.367,6.734-3.367,10.103c3.367,28.624,5.894,47.146,10.944,81.663c3.367,25.257,8.419,58.09,15.154,110.287
		c-27.782-2.525-48.83-26.098-48.83-54.723c0-6.734-5.893-12.628-12.628-12.628s-12.629,5.894-12.629,12.628
		c0,30.309-24.414,54.723-54.723,54.723h-0.842C356.119,976.02,358.645,955.814,361.17,938.977z"/>
	<path d="M218.891,1125.877c28.625,0,53.039-15.154,67.352-37.044c14.312,21.89,38.727,37.044,67.351,37.044
		c28.625,0,53.039-15.154,67.352-37.044c14.312,21.89,38.727,37.044,67.352,37.044c28.624,0,53.039-15.154,67.351-37.044
		c14.312,21.89,38.728,37.044,67.352,37.044c43.778,0,79.979-36.202,79.979-79.979c0-6.735-5.894-12.629-12.629-12.629
		c-6.734,0-12.628,5.894-12.628,12.629c0,30.308-24.415,54.723-54.723,54.723c-30.309,0-54.723-24.415-54.723-54.723
		c0-6.735-5.894-12.629-12.629-12.629s-12.628,5.894-12.628,12.629c0,30.308-24.415,54.723-54.723,54.723
		c-30.309,0-54.724-24.415-54.724-54.723c0-6.735-5.893-12.629-12.628-12.629s-12.628,5.894-12.628,12.629
		c0,30.308-24.415,54.723-54.724,54.723c-30.308,0-54.723-24.415-54.723-54.723c0-6.735-5.893-12.629-12.628-12.629
		s-12.628,5.894-12.628,12.629c0,30.308-24.415,54.723-54.724,54.723c-30.308,0-54.723-24.415-54.723-54.723
		c0-6.735-5.893-12.629-12.628-12.629s-12.629,5.894-12.629,12.629C138.911,1089.676,175.112,1125.877,218.891,1125.877z"/>
	<path fill="none" stroke="#000000" stroke-width="25" stroke-linecap="round" stroke-miterlimit="10" d="M149.857,946.415
		L15.154,91.563c0,0,153.604-55.024,405.79-55.024s403.668,55.024,403.668,55.024L689.91,946.415"/>
	<path d="M1988.536,1024.849c28.625,0,53.039-15.154,67.352-37.043c14.312,21.889,38.727,37.043,67.351,37.043
		c28.625,0,53.039-15.154,67.352-37.043c14.312,21.889,38.727,37.043,67.352,37.043c28.624,0,53.039-15.154,67.351-37.043
		c14.312,21.889,38.728,37.043,67.352,37.043c43.778,0,79.979-36.201,79.979-79.979c0-6.735-5.894-12.628-12.629-12.628
		c-6.734,0-12.628,5.893-12.628,12.628c0,30.309-24.415,54.723-54.723,54.723c-30.309,0-54.723-24.414-54.723-54.723
		c0-6.735-5.894-12.628-12.629-12.628s-12.628,5.893-12.628,12.628c0,23.573-14.312,42.937-35.359,51.355
		c-6.735-52.197-11.787-85.031-15.154-110.287c-4.209-31.992-6.735-49.672-10.103-75.771
		c21.889-25.257,126.283-146.489,134.702-224.785c0-3.367-0.842-7.576-3.367-10.103c-2.526-2.525-6.735-4.209-10.103-4.209
		c-4.21,0-103.553,4.209-186.899,84.188c-82.506-79.979-182.69-84.188-186.899-84.188c-3.368,0-7.577,1.684-10.103,4.209
		c-2.526,2.526-3.368,6.735-3.368,10.103c9.261,78.296,113.655,200.37,134.702,224.785c-3.367,35.359-7.577,64.825-16.838,124.6
		c-2.525,16.838-5.051,36.201-8.419,58.091c-16.838-9.261-28.624-27.783-28.624-47.988c0-6.735-5.893-12.628-12.628-12.628
		s-12.629,5.893-12.629,12.628c0,30.309-24.414,54.723-54.723,54.723c-30.308,0-54.723-24.414-54.723-54.723
		c0-6.735-5.894-12.628-12.628-12.628c-6.735,0-12.629,5.893-12.629,12.628C1908.557,988.648,1944.758,1024.849,1988.536,1024.849z
		 M2130.815,938.977c9.261-63.984,13.471-92.608,16.838-132.177c0-3.368-0.842-6.735-3.367-9.261
		c-0.842-1.685-108.604-120.391-129.651-199.528c31.15,5.051,103.553,21.889,162.485,83.347l0,0l0,0
		c0.842,0.842,0.842,0.842,1.684,0.842c0.842,0.842,1.684,0.842,2.525,1.685c0.842,0,1.684,0,2.525,0.842c0.842,0,1.684,0,2.525,0
		c0.843,0,1.685,0,2.526,0s1.684,0,2.525-0.842c0.842,0,1.684-0.843,2.525-1.685c0.842,0,1.685-0.842,1.685-0.842l0,0l0,0
		c58.932-61.458,130.492-79.138,162.484-83.347c-21.047,79.138-127.968,197.844-129.651,199.528
		c-2.525,2.525-3.367,6.734-3.367,10.103c3.367,28.624,5.894,47.146,10.944,81.663c3.367,25.257,8.419,58.09,15.154,110.287
		c-27.782-2.525-48.83-26.098-48.83-54.723c0-6.734-5.893-12.628-12.628-12.628s-12.629,5.894-12.629,12.628
		c0,30.309-24.414,54.723-54.723,54.723h-0.842C2125.765,976.02,2128.29,955.814,2130.815,938.977z"/>
	<path fill="none" stroke="#000000" stroke-width="25" stroke-linecap="round" stroke-miterlimit="10" d="M2594.258,91.563
		c6.52,23.545-134.702,854.852-134.702,854.852s-20.111,179.462-269.808,179.462s-270.245-179.462-270.245-179.462
		S1770.822,112.685,1784.8,91.563S2587.738,68.018,2594.258,91.563z"/>
	
		<line fill="none" stroke="#000000" stroke-width="15" stroke-linecap="round" stroke-miterlimit="10" x1="2523.495" y1="315.784" x2="2460.395" y2="716.24"/>
	
		<line fill="none" stroke="#000000" stroke-width="14" stroke-linecap="round" stroke-miterlimit="10" x1="2485.99" y1="384.826" x2="2438.776" y2="680.69"/>
	<circle cx="2098.111" cy="1061.775" r="10.667"/>
	<circle cx="2272.942" cy="1061.775" r="10.667"/>
	<path fill="#4E71BA" d="M4696.414-637.923c-28.625,0-53.039,15.154-67.352,37.043c-14.312-21.889-38.727-37.043-67.351-37.043
		c-28.625,0-53.039,15.154-67.352,37.043c-14.312-21.889-38.727-37.043-67.352-37.043c-28.624,0-53.039,15.154-67.351,37.043
		c-14.312-21.889-38.728-37.043-67.352-37.043c-43.778,0-79.979,36.201-79.979,79.98c0,6.734,5.894,12.627,12.629,12.627
		c6.734,0,12.628-5.893,12.628-12.627c0-30.309,24.415-54.723,54.723-54.723c30.309,0,54.723,24.414,54.723,54.723
		c0,6.734,5.894,12.627,12.629,12.627s12.628-5.893,12.628-12.627c0-23.574,14.312-42.938,35.359-51.355
		c6.735,52.197,11.787,85.031,15.154,110.287c4.209,31.992,6.735,49.672,10.103,75.771
		c-21.889,25.257-126.283,146.489-134.702,224.785c0,3.367,0.842,7.576,3.367,10.103c2.526,2.525,6.735,4.209,10.103,4.209
		c4.21,0,103.553-4.209,186.899-84.188c82.506,79.979,182.69,84.188,186.899,84.188c3.368,0,7.577-1.684,10.103-4.209
		c2.526-2.526,3.368-6.735,3.368-10.103c-9.261-78.296-113.655-200.37-134.702-224.785c3.367-35.359,7.577-64.825,16.838-124.6
		c2.525-16.838,5.051-36.201,8.419-58.09c16.838,9.26,28.624,27.783,28.624,47.988c0,6.734,5.893,12.627,12.628,12.627
		s12.629-5.893,12.629-12.627c0-30.309,24.414-54.723,54.723-54.723c30.308,0,54.723,24.414,54.723,54.723
		c0,6.734,5.894,12.627,12.628,12.627c6.735,0,12.629-5.893,12.629-12.627C4776.394-601.722,4740.192-637.923,4696.414-637.923z
		 M4554.135-552.05c-9.261,63.984-13.471,92.608-16.838,132.176c0,3.368,0.842,6.735,3.367,9.261
		c0.842,1.685,108.604,120.391,129.651,199.528c-31.15-5.051-103.553-21.889-162.485-83.347l0,0l0,0
		c-0.842-0.842-0.842-0.842-1.684-0.842c-0.842-0.842-1.684-0.842-2.525-1.685c-0.842,0-1.684,0-2.525-0.842
		c-0.842,0-1.684,0-2.525,0c-0.843,0-1.685,0-2.526,0s-1.684,0-2.525,0.842c-0.842,0-1.684,0.843-2.525,1.685
		c-0.842,0-1.685,0.842-1.685,0.842l0,0l0,0c-58.932,61.458-130.492,79.138-162.484,83.347
		c21.047-79.138,127.968-197.844,129.651-199.528c2.525-2.525,3.367-6.734,3.367-10.103c-3.367-28.624-5.894-47.146-10.944-81.663
		c-3.367-25.257-8.419-58.089-15.154-110.287c27.782,2.525,48.83,26.098,48.83,54.723c0,6.734,5.893,12.627,12.628,12.627
		s12.629-5.893,12.629-12.627c0-30.309,24.414-54.723,54.723-54.723h0.842C4559.186-589.093,4556.66-568.888,4554.135-552.05z"/>
	<path fill="none" stroke="#4E71BA" stroke-width="25" stroke-linecap="round" stroke-miterlimit="10" d="M4090.692,295.364
		c-6.52-23.546,134.702-854.852,134.702-854.852s20.111-179.463,269.808-179.463s270.245,179.463,270.245,179.463
		s148.681,833.729,134.703,854.852C4886.173,316.485,4097.212,318.909,4090.692,295.364z"/>
	
		<line fill="none" stroke="#4E71BA" stroke-width="15" stroke-linecap="round" stroke-miterlimit="10" x1="4161.455" y1="71.143" x2="4224.556" y2="-329.313"/>
	
		<line fill="none" stroke="#4E71BA" stroke-width="14" stroke-linecap="round" stroke-miterlimit="10" x1="4198.96" y1="2.1" x2="4246.174" y2="-293.763"/>
	<ellipse fill="#BDE1E5" cx="4536.759" cy="-666.343" rx="10.666" ry="4.556"/>
	<ellipse fill="#BDE1E5" cx="4462.089" cy="-666.344" rx="10.666" ry="4.556"/>
	<ellipse fill="#BDE1E5" cx="4497.523" cy="-694.692" rx="10.666" ry="4.556"/>
	<path fill="#DCEEEF" d="M6818.692,295.364h809.458l-134.703-854.852c0,0-15.952-61.737-67.003-61.737s-69,57-69,57s-6.733-57-63-57
		s-71.242,45-71.242,45s-6.529-45-66.781-45s-69.977,50-69.977,50s-16.383-49.157-65-50s-68.05,61.737-68.05,61.737
		L6818.692,295.364z"/>
	<path fill="#4E71BA" d="M6957.095-576.768c0,0,26.838-162.183,279.094-162.183s257.256,162.183,257.256,162.183
		s-17-44.457-67-44.457s-69.367,55.669-64.421,55s-31.579-52-67.579-55s-71.657,55-71.657,55s-17.343-55-64.343-55
		s-74.748,55.747-69.424,55s-27.576-54-63.576-55S6957.095-576.768,6957.095-576.768z"/>
	<path fill="#4E71BA" d="M7424.414-637.923c-28.625,0-53.039,15.154-67.352,37.043c-14.312-21.889-38.727-37.043-67.351-37.043
		c-28.625,0-53.039,15.154-67.352,37.043c-14.312-21.889-38.727-37.043-67.352-37.043c-28.624,0-53.039,15.154-67.351,37.043
		c-14.312-21.889-38.728-37.043-67.352-37.043c-43.778,0-79.979,36.201-79.979,79.98c0,6.734,5.894,12.627,12.629,12.627
		c6.734,0,12.628-5.893,12.628-12.627c0-30.309,24.415-54.723,54.723-54.723c30.309,0,54.723,24.414,54.723,54.723
		c0,6.734,5.894,12.627,12.629,12.627s12.628-5.893,12.628-12.627c0-23.574,14.312-42.938,35.359-51.355
		c6.735,52.197,11.787,85.031,15.154,110.287c4.209,31.992,6.735,49.672,10.103,75.771
		c-21.889,25.257-126.283,146.489-134.702,224.785c0,3.367,0.842,7.576,3.367,10.103c2.526,2.525,6.735,4.209,10.103,4.209
		c4.21,0,103.553-4.209,186.899-84.188c82.506,79.979,182.69,84.188,186.899,84.188c3.368,0,7.577-1.684,10.103-4.209
		c2.526-2.526,3.368-6.735,3.368-10.103c-9.261-78.296-113.655-200.37-134.702-224.785c3.367-35.359,7.577-64.825,16.838-124.6
		c2.525-16.838,5.051-36.201,8.419-58.09c16.838,9.26,28.624,27.783,28.624,47.988c0,6.734,5.893,12.627,12.628,12.627
		s12.629-5.893,12.629-12.627c0-30.309,24.414-54.723,54.723-54.723c30.308,0,54.723,24.414,54.723,54.723
		c0,6.734,5.894,12.627,12.628,12.627c6.735,0,12.629-5.893,12.629-12.627C7504.394-601.722,7468.192-637.923,7424.414-637.923z
		 M7282.135-552.05c-9.261,63.984-13.471,92.608-16.838,132.176c0,3.368,0.842,6.735,3.367,9.261
		c0.842,1.685,108.604,120.391,129.651,199.528c-31.15-5.051-103.553-21.889-162.485-83.347l0,0l0,0
		c-0.842-0.842-0.842-0.842-1.684-0.842c-0.842-0.842-1.684-0.842-2.525-1.685c-0.842,0-1.684,0-2.525-0.842
		c-0.842,0-1.684,0-2.525,0c-0.843,0-1.685,0-2.526,0s-1.684,0-2.525,0.842c-0.842,0-1.684,0.843-2.525,1.685
		c-0.842,0-1.685,0.842-1.685,0.842l0,0l0,0c-58.932,61.458-130.492,79.138-162.484,83.347
		c21.047-79.138,127.968-197.844,129.651-199.528c2.525-2.525,3.367-6.734,3.367-10.103c-3.367-28.624-5.894-47.146-10.944-81.663
		c-3.367-25.257-8.419-58.089-15.154-110.287c27.782,2.525,48.83,26.098,48.83,54.723c0,6.734,5.893,12.627,12.628,12.627
		s12.629-5.893,12.629-12.627c0-30.309,24.414-54.723,54.723-54.723h0.842C7287.186-589.093,7284.66-568.888,7282.135-552.05z"/>
	<path fill="none" stroke="#4E71BA" stroke-width="25" stroke-linecap="round" stroke-miterlimit="10" d="M6818.692,295.364
		c-6.52-23.546,134.702-854.852,134.702-854.852s20.111-179.463,269.808-179.463s270.245,179.463,270.245,179.463
		s148.681,833.729,134.703,854.852C7614.173,316.485,6825.212,318.909,6818.692,295.364z"/>
	
		<line fill="none" stroke="#4E71BA" stroke-width="15" stroke-linecap="round" stroke-miterlimit="10" x1="6889.455" y1="71.143" x2="6952.556" y2="-329.313"/>
	
		<line fill="none" stroke="#4E71BA" stroke-width="14" stroke-linecap="round" stroke-miterlimit="10" x1="6926.96" y1="2.1" x2="6974.174" y2="-293.763"/>
	<ellipse fill="#BDE1E5" cx="7264.759" cy="-666.343" rx="10.666" ry="4.556"/>
	<ellipse fill="#BDE1E5" cx="7190.089" cy="-666.344" rx="10.666" ry="4.556"/>
	<ellipse fill="#BDE1E5" cx="7225.523" cy="-694.692" rx="10.666" ry="4.556"/>
</g>
</svg>
