<?xml version="1.0" encoding="utf-8"?>
<!-- Generator: Adobe Illustrator 19.0.0, SVG Export Plug-In . SVG Version: 6.00 Build 0)  -->
<svg version="1.1" id="Layer_1" xmlns="http://www.w3.org/2000/svg" xmlns:xlink="http://www.w3.org/1999/xlink" x="0px" y="0px"
	 viewBox="7266.3 -1931.9 1509 1509" style="enable-background:new 7266.3 -1931.9 1509 1509;" xml:space="preserve">
<style type="text/css">
	.st0{fill:#FFFFFF;}
	.st1{fill:#DCEEEF;}
	.st2{fill:#4E71BA;}
	.st3{fill:none;stroke:#4E71BA;stroke-width:25;stroke-linecap:round;stroke-miterlimit:10;}
	.st4{fill:none;stroke:#4E71BA;stroke-width:15;stroke-linecap:round;stroke-miterlimit:10;}
	.st5{fill:none;stroke:#4E71BA;stroke-width:14;stroke-linecap:round;stroke-miterlimit:10;}
	.st6{fill:#BDE1E5;}
</style>
<g id="Calque_2">
	<g>
		<path class="st0" d="M8727.3-1177.4c0-390.2-316.3-706.5-706.5-706.5s-706.5,316.3-706.5,706.5c0,390.2,316.3,706.5,706.5,706.5
			C8411-470.9,8727.3-787.2,8727.3-1177.4z"/>
		<path class="st0" d="M8020.8-422.9c-101.9,0-200.7-20-293.7-59.3c-89.8-38-170.5-92.4-239.8-161.7
			c-69.3-69.3-123.7-150-161.7-239.8c-39.3-93-59.3-191.8-59.3-293.7c0-101.9,20-200.7,59.3-293.7c38-89.8,92.4-170.5,161.7-239.8
			c69.3-69.3,150-123.7,239.8-161.7c93-39.3,191.8-59.3,293.7-59.3c101.9,0,200.7,19.9,293.7,59.3c89.8,38,170.5,92.4,239.8,161.7
			c69.3,69.3,123.7,150,161.7,239.8c39.3,93,59.3,191.8,59.3,293.7c0,101.9-20,200.7-59.3,293.7c-38,89.8-92.4,170.5-161.7,239.8
			c-69.3,69.3-150,123.7-239.8,161.7C8221.4-442.9,8122.6-422.9,8020.8-422.9z M8020.8-1871.4c-93.7,0-184.6,18.3-270.1,54.5
			c-82.6,35-156.9,85-220.6,148.7c-63.7,63.7-113.8,138-148.7,220.6c-36.2,85.5-54.5,176.4-54.5,270.1c0,93.7,18.3,184.6,54.5,270.1
			c35,82.6,85,156.9,148.7,220.6c63.7,63.7,138,113.8,220.6,148.7c85.5,36.2,176.4,54.5,270.1,54.5s184.6-18.3,270.1-54.5
			c82.6-35,156.9-85,220.6-148.7s113.8-138,148.7-220.6c36.2-85.5,54.5-176.4,54.5-270.1c0-93.7-18.3-184.6-54.5-270.1
			c-35-82.6-85-156.9-148.7-220.6c-63.7-63.7-138-113.8-220.6-148.7C8205.3-1853.1,8114.5-1871.4,8020.8-1871.4z"/>
	</g>
</g>
<g id="Calque_1">
	<path class="st1" d="M7597.7-727.8h809.5l-134.7-854.9c0,0-16-61.7-67-61.7c-51.1,0-69,57-69,57s-6.7-57-63-57s-71.2,45-71.2,45
		s-6.5-45-66.8-45s-70,50-70,50s-16.4-49.2-65-50s-68,61.7-68,61.7L7597.7-727.8z"/>
	<path class="st2" d="M7736.1-1599.9c0,0,26.8-162.2,279.1-162.2c252.3,0,257.3,162.2,257.3,162.2s-17-44.5-67-44.5
		s-69.4,55.7-64.4,55s-31.6-52-67.6-55s-71.7,55-71.7,55s-17.3-55-64.3-55s-74.7,55.7-69.4,55s-27.6-54-63.6-55
		S7736.1-1599.9,7736.1-1599.9z"/>
	<path class="st2" d="M8203.4-1661.1c-28.6,0-53,15.2-67.4,37c-14.3-21.9-38.7-37-67.4-37c-28.6,0-53,15.2-67.4,37
		c-14.3-21.9-38.7-37-67.4-37c-28.6,0-53,15.2-67.4,37c-14.3-21.9-38.7-37-67.4-37c-43.8,0-80,36.2-80,80c0,6.7,5.9,12.6,12.6,12.6
		c6.7,0,12.6-5.9,12.6-12.6c0-30.3,24.4-54.7,54.7-54.7c30.3,0,54.7,24.4,54.7,54.7c0,6.7,5.9,12.6,12.6,12.6s12.6-5.9,12.6-12.6
		c0-23.6,14.3-42.9,35.4-51.4c6.7,52.2,11.8,85,15.2,110.3c4.2,32,6.7,49.7,10.1,75.8c-21.9,25.3-126.3,146.5-134.7,224.8
		c0,3.4,0.8,7.6,3.4,10.1c2.5,2.5,6.7,4.2,10.1,4.2c4.2,0,103.6-4.2,186.9-84.2c82.5,80,182.7,84.2,186.9,84.2
		c3.4,0,7.6-1.7,10.1-4.2c2.5-2.5,3.4-6.7,3.4-10.1c-9.3-78.3-113.7-200.4-134.7-224.8c3.4-35.4,7.6-64.8,16.8-124.6
		c2.5-16.8,5.1-36.2,8.4-58.1c16.8,9.3,28.6,27.8,28.6,48c0,6.7,5.9,12.6,12.6,12.6s12.6-5.9,12.6-12.6c0-30.3,24.4-54.7,54.7-54.7
		s54.7,24.4,54.7,54.7c0,6.7,5.9,12.6,12.6,12.6s12.6-5.9,12.6-12.6C8283.4-1624.9,8247.2-1661.1,8203.4-1661.1z M8061.1-1575.2
		c-9.3,64-13.5,92.6-16.8,132.2c0,3.4,0.8,6.7,3.4,9.3c0.8,1.7,108.6,120.4,129.7,199.5c-31.1-5.1-103.6-21.9-162.5-83.3l0,0l0,0
		c-0.8-0.8-0.8-0.8-1.7-0.8c-0.8-0.8-1.7-0.8-2.5-1.7c-0.8,0-1.7,0-2.5-0.8c-0.8,0-1.7,0-2.5,0c-0.8,0-1.7,0-2.5,0s-1.7,0-2.5,0.8
		c-0.8,0-1.7,0.8-2.5,1.7c-0.8,0-1.7,0.8-1.7,0.8l0,0l0,0c-58.9,61.5-130.5,79.1-162.5,83.3c21-79.1,128-197.8,129.7-199.5
		c2.5-2.5,3.4-6.7,3.4-10.1c-3.4-28.6-5.9-47.1-10.9-81.7c-3.4-25.3-8.4-58.1-15.2-110.3c27.8,2.5,48.8,26.1,48.8,54.7
		c0,6.7,5.9,12.6,12.6,12.6s12.6-5.9,12.6-12.6c0-30.3,24.4-54.7,54.7-54.7h0.8C8066.2-1612.3,8063.7-1592,8061.1-1575.2z"/>
	<path class="st3" d="M7597.7-727.8c-6.5-23.5,134.7-854.9,134.7-854.9s20.1-179.5,269.8-179.5s270.2,179.5,270.2,179.5
		s148.7,833.7,134.7,854.9C8393.2-706.7,7604.2-704.2,7597.7-727.8z"/>
	<line class="st4" x1="7668.5" y1="-952" x2="7731.6" y2="-1352.5"/>
	<line class="st5" x1="7706" y1="-1021.1" x2="7753.2" y2="-1316.9"/>
	<ellipse class="st6" cx="8043.8" cy="-1689.5" rx="10.7" ry="4.6"/>
	<ellipse class="st6" cx="7969.1" cy="-1689.5" rx="10.7" ry="4.6"/>
	<ellipse class="st6" cx="8004.5" cy="-1717.8" rx="10.7" ry="4.6"/>
</g>
</svg>
