<?xml version="1.0" encoding="utf-8"?>
<!-- Generator: Adobe Illustrator 16.0.0, SVG Export Plug-In . SVG Version: 6.00 Build 0)  -->
<!DOCTYPE svg PUBLIC "-//W3C//DTD SVG 1.1//EN" "http://www.w3.org/Graphics/SVG/1.1/DTD/svg11.dtd">
<svg version="1.1" id="Calque_1" xmlns="http://www.w3.org/2000/svg" xmlns:xlink="http://www.w3.org/1999/xlink" x="0px" y="0px"
	 width="1000px" height="1000px" viewBox="0 0 1000 1000" enable-background="new 0 0 1000 1000" xml:space="preserve">
<circle fill="#FFFFFF" cx="500" cy="500" r="500"/>
<g>
	<g>
		<path fill="none" d="M616.029,140.462c-0.104-0.063-0.213-0.119-0.316-0.184C615.816,140.343,615.925,140.399,616.029,140.462z"/>
		<path fill="none" d="M607.442,131.747c-0.006-0.007-0.012-0.015-0.016-0.022C607.431,131.731,607.437,131.739,607.442,131.747z"/>
		<path fill="none" d="M497.936,713.787L497.936,713.787c0.198-0.053,0.397-0.105,0.596-0.158
			C498.333,713.682,498.134,713.734,497.936,713.787z"/>
		<path fill="none" d="M619.522,142.138c-0.166-0.06-0.338-0.106-0.5-0.17C619.185,142.031,619.356,142.078,619.522,142.138z"/>
		<path fill="none" d="M623.398,143.065c-0.246-0.032-0.499-0.048-0.74-0.089C622.899,143.017,623.152,143.033,623.398,143.065z"/>
		<path fill="none" d="M621.409,142.7c-0.203-0.049-0.412-0.084-0.612-0.14C620.997,142.616,621.206,142.651,621.409,142.7z"/>
		<path fill="none" d="M617.731,141.389c-0.134-0.063-0.271-0.118-0.403-0.185C617.461,141.271,617.598,141.325,617.731,141.389z"/>
		<path fill="none" d="M349.734,848.701c11.257-0.131,20.963-1.135,27.399-3.064c-6.436,1.93-16.144,2.934-27.398,3.064
			C349.735,848.701,349.735,848.701,349.734,848.701z"/>
		<path fill="none" d="M417.207,844.682c-0.335,0.018-0.672,0.029-1.009,0.045C416.535,844.711,416.872,844.699,417.207,844.682z"/>
		<path fill="none" d="M612.88,138.123c-0.06-0.053-0.122-0.101-0.183-0.154C612.758,138.022,612.82,138.069,612.88,138.123z"/>
		<path fill="none" d="M424.117,844.209c-0.401,0.037-0.804,0.064-1.205,0.096C423.313,844.273,423.716,844.246,424.117,844.209z"/>
		<path fill="none" d="M420.673,844.479c-0.375,0.025-0.752,0.045-1.127,0.068C419.921,844.523,420.298,844.504,420.673,844.479z"/>
		<path fill="none" d="M625.498,143.223c-0.295-0.007-0.599,0.001-0.889-0.017C624.899,143.225,625.203,143.216,625.498,143.223z"/>
		<path fill="none" d="M427.532,843.867c-0.397,0.047-0.797,0.08-1.195,0.121C426.735,843.947,427.135,843.914,427.532,843.867z"/>
		<path fill="none" d="M377.139,845.635c-4.601-0.545-9.209-1.053-13.817-1.564c-0.001,0-0.003,0.002-0.004,0.002
			C367.927,844.584,372.537,845.088,377.139,845.635L377.139,845.635z"/>
		<path fill="none" d="M410.155,844.93c-0.164,0.004-0.327,0.006-0.49,0.01C409.828,844.936,409.992,844.934,410.155,844.93z"/>
		<path fill="none" d="M627.726,143.161c-0.357,0.027-0.723,0.071-1.071,0.081C627.003,143.231,627.368,143.188,627.726,143.161z"/>
		<path fill="none" d="M633.389,142.109c-0.801,0.234-1.584,0.431-2.35,0.592C631.805,142.541,632.588,142.344,633.389,142.109z"/>
		<path fill="none" d="M631.814,678.734c0.278,0.82,0.552,1.641,0.825,2.463C632.366,680.375,632.093,679.557,631.814,678.734
			L631.814,678.734z"/>
		<path fill="none" d="M395.746,841.096c-0.251,0.066-0.514,0.137-0.787,0.207C395.223,841.234,395.503,841.16,395.746,841.096z"/>
		<path fill="none" d="M631.741,678.518l0.216,0.121c-0.053,0.018-0.104,0.037-0.155,0.057c0.004,0.012,0.008,0.025,0.013,0.039
			c0.065-0.023,0.133-0.047,0.199-0.068C631.957,678.639,631.741,678.518,631.741,678.518z"/>
		<path fill="none" d="M575.926,781.939c-1.859,1.029-3.712,2.08-5.557,3.141c1.847-1.061,3.698-2.111,5.559-3.141
			C575.927,781.939,575.926,781.939,575.926,781.939z"/>
		<path fill="none" d="M620.716,682.658c-0.818,0.293-1.685,0.602-2.613,0.934C619.031,683.26,619.897,682.951,620.716,682.658z"/>
		<path fill="none" d="M564.703,781.859c-0.047,0.002-0.094,0.002-0.14,0.006C564.609,781.861,564.656,781.861,564.703,781.859z"/>
		<path fill="none" d="M563.64,781.916c-0.08,0.006-0.16,0.008-0.239,0.014C563.479,781.924,563.56,781.922,563.64,781.916z"/>
		<path fill="none" d="M630.179,142.846c-0.463,0.083-0.932,0.175-1.383,0.23C629.247,143.021,629.716,142.929,630.179,142.846z"/>
		<path fill="none" d="M560.372,782.322c-0.111,0.021-0.222,0.039-0.333,0.061C560.15,782.361,560.261,782.344,560.372,782.322z"/>
		<path fill="none" d="M562.559,782.006c-0.1,0.012-0.2,0.018-0.299,0.027C562.358,782.023,562.459,782.018,562.559,782.006z"/>
		<path fill="none" d="M559.258,782.57c-0.1,0.023-0.198,0.045-0.297,0.07C559.06,782.615,559.158,782.594,559.258,782.57z"/>
		<path fill="none" d="M561.471,782.139c-0.11,0.016-0.223,0.027-0.331,0.045C561.248,782.166,561.36,782.154,561.471,782.139z"/>
		<path fill="none" d="M413.704,844.83c-0.268,0.008-0.536,0.016-0.805,0.023C413.168,844.846,413.437,844.838,413.704,844.83z"/>
		<path fill="none" d="M700.531,116.282c-0.411-0.15-0.824-0.307-1.235-0.455C699.707,115.975,700.12,116.131,700.531,116.282z"/>
		<path fill="none" d="M704.496,117.778c-0.608-0.236-1.216-0.477-1.821-0.707C703.28,117.301,703.888,117.542,704.496,117.778z"/>
		<path fill="none" d="M696.831,114.971c-0.299-0.103-0.6-0.211-0.898-0.312C696.231,114.76,696.532,114.868,696.831,114.971z"/>
		<path fill="none" d="M686.23,111.733c-0.101-0.027-0.202-0.057-0.304-0.083C686.028,111.676,686.129,111.706,686.23,111.733z"/>
		<path fill="none" d="M709.482,119.777c-1.14-0.474-2.278-0.937-3.414-1.388C707.204,118.841,708.343,119.304,709.482,119.777z"/>
		<path fill="none" d="M682.755,110.857c-0.044-0.011-0.088-0.022-0.132-0.033C682.667,110.835,682.71,110.846,682.755,110.857z"/>
		<path fill="none" d="M693.178,113.764c-0.197-0.063-0.395-0.13-0.591-0.191C692.783,113.634,692.98,113.701,693.178,113.764z"/>
		<path fill="none" d="M689.662,112.691c-0.137-0.04-0.275-0.084-0.411-0.124C689.387,112.607,689.525,112.651,689.662,112.691z"/>
		<path fill="none" d="M725.594,124.421c-0.143-0.028-0.285-0.054-0.429-0.083C725.309,124.367,725.451,124.394,725.594,124.421z"/>
		<path fill="none" d="M723.094,123.9c-0.214-0.047-0.429-0.09-0.642-0.138C722.665,123.81,722.88,123.853,723.094,123.9z"/>
		<path fill="none" d="M727.984,124.878c-0.018-0.003-0.037-0.006-0.054-0.01C727.947,124.871,727.967,124.875,727.984,124.878z"/>
		<path fill="none" d="M720.55,123.311c-0.258-0.063-0.516-0.12-0.771-0.184C720.034,123.191,720.292,123.248,720.55,123.311z"/>
		<path fill="none" d="M715.434,121.904c-0.296-0.092-0.596-0.176-0.89-0.271C714.838,121.728,715.138,121.812,715.434,121.904z"/>
		<path fill="none" d="M712.805,121.036c-0.271-0.095-0.545-0.182-0.814-0.281C712.26,120.854,712.534,120.941,712.805,121.036z"/>
		<path fill="none" d="M718.004,122.652c-0.288-0.079-0.577-0.151-0.863-0.232C717.427,122.501,717.716,122.573,718.004,122.652z"/>
		<path fill="none" d="M610.026,135.188c-0.027-0.03-0.053-0.059-0.08-0.09C609.974,135.129,609.999,135.158,610.026,135.188z"/>
		<path fill="none" d="M700.269,743.676c0.074-0.154,0.155-0.301,0.215-0.471C700.424,743.375,700.343,743.521,700.269,743.676z"/>
		<path fill="none" d="M699.659,744.572c0.185-0.18,0.344-0.387,0.479-0.615C700.003,744.186,699.844,744.393,699.659,744.572z"/>
		<path fill="none" d="M611.419,136.727c-0.041-0.043-0.086-0.083-0.127-0.127C611.333,136.644,611.378,136.683,611.419,136.727z"/>
		<path fill="none" d="M477.755,181.201c-11.338,10.364-25.571,17.043-45.978,11.876
			C452.184,198.244,466.417,191.565,477.755,181.201z"/>
		<path fill="none" d="M679.368,110.102c-0.014-0.002-0.027-0.006-0.041-0.009C679.341,110.095,679.354,110.099,679.368,110.102z"/>
		<path fill="none" d="M701.155,738.334c0.007-0.074,0.017-0.143,0.024-0.215C701.172,738.191,701.162,738.26,701.155,738.334z"/>
		<path fill="none" d="M700.952,740.762c0.012-0.123,0.027-0.24,0.039-0.363C700.979,740.521,700.964,740.639,700.952,740.762z"/>
		<path fill="none" d="M700.595,742.809c0.043-0.154,0.094-0.303,0.128-0.467C700.688,742.506,700.638,742.654,700.595,742.809z"/>
		<path fill="none" d="M430.93,843.443c-0.348,0.047-0.698,0.086-1.048,0.131C430.231,843.529,430.582,843.49,430.93,843.443z"/>
		<path fill="none" d="M608.704,133.528c-0.015-0.019-0.03-0.038-0.045-0.057C608.674,133.49,608.689,133.508,608.704,133.528z"/>
		<path fill="none" d="M429.39,192.424c0.802,0.233,1.595,0.452,2.378,0.65C430.985,192.876,430.192,192.658,429.39,192.424z"/>
		<path fill="none" d="M482.157,176.858c0.276-0.293,0.556-0.585,0.829-0.881C482.713,176.273,482.434,176.565,482.157,176.858z"/>
		<path fill="none" d="M483.492,175.422c0.666-0.729,1.324-1.464,1.972-2.209C484.816,173.958,484.158,174.693,483.492,175.422z"/>
		<path fill="none" d="M480.752,178.309c0.323-0.326,0.646-0.653,0.964-0.984C481.398,177.656,481.075,177.983,480.752,178.309z"/>
		<path fill="none" d="M477.798,181.16c0.891-0.816,1.766-1.655,2.622-2.513C479.563,179.505,478.688,180.344,477.798,181.16z"/>
		<path fill="none" d="M614.414,139.37c-0.08-0.059-0.163-0.112-0.243-0.173C614.251,139.258,614.334,139.311,614.414,139.37z"/>
		<path fill="none" d="M701.36,736.695l0.402,0.205c-0.165,0.135-0.328,0.271-0.492,0.406c-0.004,0.025-0.006,0.053-0.009,0.078
			c0.186-0.152,0.372-0.307,0.558-0.457C701.763,736.9,701.36,736.695,701.36,736.695z"/>
		<path fill="none" d="M380.32,845.166c0.012,0,0.023,0,0.036,0C380.344,845.166,380.332,845.166,380.32,845.166L380.32,845.166z"/>
		<path fill="none" d="M700.884,741.396c-0.021,0.152-0.051,0.297-0.076,0.447C700.833,741.693,700.862,741.549,700.884,741.396z"/>
		<path fill="none" d="M701.271,737.307L701.271,737.307c0.027-0.205,0.052-0.416,0.09-0.611
			C701.322,736.891,701.297,737.1,701.271,737.307z"/>
		<path fill="#FFFFFF" d="M349.559,606.121c-0.769,0.205-1.494,0.439-2.193,0.691c6.987,0.848,13.973,1.693,20.958,2.541
			c0.01-0.061,0.021-0.121,0.031-0.182c15.902,2.629,31.798,5.299,47.713,7.848c1.036,0.164,2.086,0.287,3.137,0.387
			c0.431-0.566,0.855-1.113,1.271-1.6C396.924,611.859,373.894,603.609,349.559,606.121z"/>
		<path fill="#FFFFFF" d="M832.09,442.923c-11.567-60.054-39.333-113.03-74.792-162.037c-35.606-49.214-81.05-88.92-127.897-127.303
			c18.993,21.817,37.988,43.638,56.983,65.456c-1.07,0.96-2.134,1.922-3.205,2.887c-4.101-3.977-8.202-7.953-12.487-12.105
			c-2.534,6.538-5.047,13.009-7.624,19.653c14.353,40.77,32.197,81.745,27.938,130.373c25.424-16.351,21.874-39.386,22.72-61.088
			c2.419,5.982,4.197,11.844,5.426,17.82c0.482,2.332-0.345,4.917-0.454,7.389c-2.375,52.738-32.937,88.401-72.443,118.277
			c-2.012,1.519-11.986-2.641-11.983-4.167c-0.01-5.81,2.554-11.625,4.153-17.438c-1.228-3.429-2.456-6.858-3.683-10.286
			c-3.134,1.294-7.053,1.804-9.248,4.021c-8.113,8.177-15.654,16.92-23.412,25.453c-0.135,1.872,0.47,4.411-0.526,5.513
			c-12.669,14.064-26.534,24.631-44.907,32.875c-45.916,20.601-92.135,41.677-132.191,73.411
			c-16.785,13.295-34.854,24.955-51.747,38.119c-8.622,6.721-17.615,12.338-27.022,16.865c0.071,0.008,0.144,0.016,0.215,0.025
			c0.488,0.059,0.976,0.117,1.464,0.176c0.699-0.252,1.424-0.486,2.193-0.691c24.335-2.512,47.365,5.738,70.917,9.686
			c-0.416,0.486-0.841,1.033-1.271,1.6c0.046,0.004,0.092,0.01,0.139,0.014c8.208-3.879,16.435-7.717,24.709-11.451
			c32.467-14.648,65.071-29.072,98.178-42.174c20.258-8.014,41.657-13.082,62.38-19.984c19.457-6.477,38.692-13.625,58.022-20.479
			c-15.663,9.617-31.918,18.117-49.015,24.289c-54.053,19.516-111.858,28.861-161.086,61.475
			c-5.537,3.666-11.253,7.088-17.07,10.355c4.525,1.811,8.455,4.865,12.027,8.76c5.374,5.857,10.18,12.166,13.563,19.322
			c2.308,4.885,3.763,10.209,5.27,15.43c1.77,6.137,2.826,12.561,6.555,17.9c3.157,4.521,6.758,8.738,10.188,13.066
			c0.058,0.072,0.117,0.145,0.175,0.217c18.423-15.541,42.206-23.855,69.764-26.939c-20.854,7.578-38.863,14.131-56.873,20.676
			c0.397,1.693,0.796,3.393,1.194,5.09c10.04-1,20.081-1.994,29.57-2.941c-11.894,4.486-23.926,9.023-35.997,13.578
			c1.592,1.994,3.161,4.008,4.636,6.086c0.102,0.143,0.19,0.287,0.287,0.43c0.591-0.154,1.18-0.311,1.77-0.467
			c0.312,1.322,0.629,2.648,0.94,3.971c-0.198,0.053-0.397,0.105-0.596,0.158c2.777,5.82,3.323,12.23,2.752,18.865
			c-0.014,0.139-0.031,0.273-0.045,0.41c3.534-1.5,7.073-2.975,10.634-4.336c0.516,1.266,1.034,2.537,1.547,3.803
			c-4.225,1.41-8.45,2.818-12.676,4.229c-0.869,4.908-2.537,9.4-5.058,13.457c8.411-1.387,16.823-2.775,25.233-4.164
			c-9.349,2.924-18.72,5.652-28.115,8.164c-1.491,1.797-3.173,3.496-5.072,5.086c-1.441,1.207-2.874,2.432-4.323,3.633
			c20.195-4.541,40.427-9.09,60.664-13.641c-24.043,10.543-48.531,19-73.642,24.15c-1.632,1.52-3.19,3.102-4.67,4.752
			c12.118-1.396,24.236-2.795,36.355-4.193c0.27,1.26,0.54,2.52,0.81,3.775c-13.593,1.6-27.184,3.197-40.777,4.797
			c-2.106,2.799-3.986,5.791-5.616,9c32.687-8.623,65.372-17.246,98.053-25.869c0.13,0.746,0.253,1.496,0.379,2.242
			c-33.239,8.77-66.478,17.539-99.717,26.309c-0.02,0.045-0.042,0.088-0.063,0.135c-2.417,5.451-6.588,9.602-11.029,13.438
			c-3.558,3.074-7.309,5.816-11.193,8.334c8.909-1.111,17.775-2.67,26.575-4.881c45.04-11.324,90.282-22.291,129.423-49.469
			c11.818-8.209,24.931-14.541,37.453-21.732c-1.004-1.822-2.016-3.646-3.019-5.469c-10.591,4.361-21.182,8.721-31.777,13.084
			c-0.184-0.35-0.368-0.703-0.551-1.053c3.896-2.922,7.791-5.846,11.688-8.766c-0.58-0.879-1.16-1.758-1.741-2.637
			c-7.238,3.666-14.473,7.332-21.709,11c-0.616-0.896-1.238-1.791-1.86-2.686c4.045-3.238,8.09-6.473,12.066-9.656
			c-1.17-2.178-2.363-4.402-3.553-6.619c-8.811,0.414-17.617,0.807-26.421,1.246c-4.892,0.246-9.868,1.299-14.662,0.729
			c-14.209-1.701-13.976-13.621-15.274-24.203c3.354,4.693,6.716,9.389,10.078,14.084c-5.773-18.096,2.29-28.547,31.804-40.42
			c-1.297-2.186-3.971-6.092-3.695-6.311c13.663-10.908,22.92,1.822,35.624,4.717c-7.714-7.713-15.421-15.422-23.131-23.137
			c0.783-0.832,1.563-1.668,2.34-2.504c9.776,8.363,19.547,16.727,31.579,27.027c2.557-1.5,9.414-3.531,13.174-8.104
			c11.115-13.523,25.751-14.15,40.556-11.842c9.745,1.516,16.163,2.668,22.771-7.699c6.313-9.906,17.226-16.883,26.115-25.146
			c0.826,0.867,1.651,1.734,2.486,2.605c-8.984,8.961-17.967,17.924-26.952,26.885c0.879,1.035,1.766,2.07,2.646,3.107
			c6.786-5.693,13.936-11.018,20.269-17.178c6.587-6.408,12.379-13.623,18.518-20.486c1.012,0.883,2.02,1.766,3.03,2.641
			c-7.839,9.012-15.679,18.023-23.519,27.027c1.28,1.158,2.556,2.316,3.834,3.475c14.056-15.814,28.111-31.631,42.167-47.445
			c0.648,0.344,1.299,0.686,1.95,1.033c-5.643,8.555-11.281,17.107-16.923,25.664c0.897,0.766,1.801,1.529,2.702,2.295
			c8.743-8.146,17.481-16.297,26.223-24.445c-1.78,6.652-9.297,14.215-7.943,16.482c6.562,11.004-2.926,15.508-7.053,21.77
			c-4.946,7.502-11.052,14.25-16.788,21.225c-18.018,21.895-36.097,43.744-54.151,65.613c-7.76,7.219-15.528,14.436-23.289,21.658
			c-4.899,6.141-9.798,12.281-14.697,18.426c0.772,0.867,1.541,1.734,2.315,2.6c16.739-13.787,33.481-27.574,50.226-41.361
			c0.026-0.207,0.052-0.416,0.09-0.611c0.481-0.262,0.972-0.512,1.467-0.758c20.727-20.354,41.399-40.738,62.073-61.121
			c-13.638,18.902-29.365,35.889-45.91,52.039c-4.271,4.17-10.562,6.275-16.163,9.082c-0.336,0.328-0.671,0.658-1.008,0.99
			c-0.186,0.15-0.372,0.305-0.558,0.457c-0.032,0.238-0.059,0.486-0.082,0.734c-0.008,0.072-0.018,0.141-0.024,0.215
			c-0.061,0.682-0.104,1.381-0.164,2.064c-0.012,0.123-0.027,0.24-0.039,0.363c-0.022,0.213-0.041,0.428-0.068,0.635
			c-0.021,0.152-0.051,0.297-0.076,0.447c-0.027,0.166-0.051,0.338-0.085,0.498c-0.034,0.164-0.085,0.313-0.128,0.467
			c-0.037,0.131-0.066,0.271-0.111,0.396c-0.06,0.17-0.141,0.316-0.215,0.471c-0.046,0.092-0.08,0.195-0.131,0.281
			c-0.135,0.229-0.294,0.436-0.479,0.615c-7.156,6.9-14.893,13.209-22.423,19.729c35.847-12.74,57.24-42.998,83.968-66.816
			c-1.917,4.408-5.096,7.426-7.919,10.746c-2.488,2.918-4.58,6.176-6.843,9.285c2.962,0.641,4.231-0.01,5.235-0.955
			c24.748-23.199,43.313-50.027,58.27-81.053C839.968,573.234,844.876,509.295,832.09,442.923z"/>
		<path d="M511.276,728.727c-3.561,1.361-7.1,2.836-10.634,4.336c-0.119,1.256-0.281,2.488-0.495,3.695
			c4.226-1.41,8.451-2.818,12.676-4.229C512.311,731.264,511.792,729.992,511.276,728.727z"/>
		<path d="M495.09,750.215c-0.858,1.385-1.821,2.719-2.882,4c9.396-2.512,18.767-5.24,28.115-8.164
			C511.913,747.439,503.501,748.828,495.09,750.215z"/>
		<rect x="377.139" y="845.635" width="0" height="0"/>
		<path d="M701.36,736.695c-0.038,0.195-0.063,0.406-0.09,0.611c0.164-0.135,0.327-0.271,0.492-0.406L701.36,736.695z"/>
		<path d="M679.327,110.093c0.014,0.002,0.027,0.006,0.041,0.009c1.083,0.226,2.168,0.466,3.255,0.723
			c0.044,0.011,0.088,0.022,0.132,0.033c1.056,0.25,2.112,0.514,3.172,0.792c0.102,0.027,0.203,0.057,0.304,0.083
			c1.005,0.267,2.013,0.543,3.021,0.834c0.136,0.04,0.274,0.083,0.411,0.124c0.974,0.285,1.947,0.575,2.925,0.881
			c0.196,0.062,0.394,0.129,0.591,0.191c0.917,0.292,1.835,0.586,2.755,0.896c0.299,0.101,0.6,0.209,0.898,0.312
			c0.821,0.281,1.643,0.561,2.465,0.856c0.411,0.147,0.824,0.304,1.235,0.455c0.715,0.261,1.428,0.519,2.144,0.79
			c0.605,0.229,1.213,0.47,1.821,0.707c0.524,0.204,1.047,0.401,1.572,0.611c1.136,0.451,2.274,0.915,3.414,1.388
			c0.828,0.344,1.663,0.669,2.508,0.978c0.27,0.099,0.544,0.186,0.814,0.281c0.579,0.203,1.155,0.408,1.739,0.597
			c0.294,0.095,0.594,0.179,0.89,0.271c0.567,0.176,1.134,0.353,1.707,0.516c0.286,0.081,0.575,0.153,0.863,0.232
			c0.59,0.162,1.18,0.325,1.775,0.475c0.255,0.064,0.513,0.122,0.771,0.184c0.633,0.155,1.266,0.309,1.902,0.452
			c0.213,0.048,0.428,0.091,0.642,0.138c0.689,0.15,1.378,0.299,2.071,0.438c0.144,0.029,0.286,0.055,0.429,0.083
			c0.776,0.154,1.555,0.305,2.337,0.447c0.017,0.003,0.036,0.006,0.054,0.01c7.923,1.442,16.059,2.372,23.941,3.915
			c-0.758-1.007-1.47-2.177-2.428-2.431c-28.271-7.483-56.349-15.944-84.96-21.82c-23.366-4.799-49.212,7.397-57.49,24.021
			C629.904,108.329,654.064,104.842,679.327,110.093z"/>
		<path fill="#FFFFFF" d="M640.702,764.807c-20.724,13.256-41.303,26.729-61.949,40.109c-0.719-0.922-1.439-1.848-2.158-2.768
			c4.213-4.074,8.428-8.146,12.64-12.221c-10.724,3.699-21.447,7.4-32.171,11.104c-0.116-0.334-0.236-0.664-0.349-0.994
			c21.668-12.361,43.339-24.717,63.996-36.498c-0.473,1.633-1.011,3.48-1.546,5.33c12.983-8.385,30.93-9.729,37.773-27.035
			c0.787-1.986,5.021-2.609,7.655-3.863c-0.209-2.883-0.417-5.764-0.803-11.027c-7.163,4.787-13.138,9.039-19.36,12.895
			c-22.698,14.066-45.48,28.002-68.234,41.986l0.16,0.104c-2.008,1.016-4,2.078-5.987,3.152
			c-18.462,10.607-36.369,22.549-55.945,30.258c-35.418,13.955-59.047,16.627-67.881,12.125c9.947-2.623,19.424-4.813,28.713-7.639
			c22.819-6.943,45.764-13.57,68.221-21.559c9.345-3.326,18.06-8.416,26.892-13.186c1.845-1.061,3.697-2.111,5.557-3.141
			c-3.694,0.115-7.538-0.219-11.223-0.08c-0.047,0.002-0.094,0.002-0.14,0.006c-0.311,0.012-0.617,0.029-0.924,0.051
			c-0.08,0.006-0.16,0.008-0.239,0.014c-0.282,0.02-0.563,0.049-0.842,0.076c-0.1,0.012-0.2,0.018-0.299,0.027
			c-0.265,0.031-0.526,0.068-0.789,0.105c-0.11,0.016-0.223,0.027-0.331,0.045c-0.259,0.041-0.514,0.09-0.768,0.139
			c-0.111,0.021-0.222,0.039-0.333,0.061c-0.263,0.057-0.522,0.123-0.781,0.188c-0.1,0.023-0.198,0.045-0.297,0.07
			c-0.355,0.096-0.708,0.203-1.056,0.32c-13.781,4.682-26.733,11.971-40.652,16.064c-30.42,8.953-60.971,17.313-92.133,21.48
			c-5.567,3.08-11.357,5.781-17.298,8.227c-9.458,3.895-19.134,7.146-28.848,10.287c5.691,0.705,11.299,1.398,16.772,2.076
			c-0.243,0.064-0.523,0.139-0.787,0.207c-3.582,0.947-9.004,2.379-14.639,3.863c0.012,0,0.023,0,0.035,0
			c9.741-0.254,19.562-0.027,29.31-0.227c0.163-0.004,0.327-0.006,0.49-0.01c0.916-0.021,1.83-0.047,2.744-0.076
			c0.269-0.008,0.537-0.016,0.805-0.023c0.833-0.031,1.664-0.064,2.494-0.104c0.337-0.016,0.673-0.027,1.009-0.045
			c0.78-0.039,1.56-0.086,2.339-0.135c0.375-0.023,0.752-0.043,1.127-0.068c0.747-0.051,1.493-0.111,2.238-0.174
			c0.401-0.031,0.804-0.059,1.205-0.096c0.742-0.064,1.481-0.145,2.221-0.221c0.398-0.041,0.798-0.074,1.195-0.121
			c0.785-0.088,1.567-0.189,2.349-0.293c0.35-0.045,0.7-0.084,1.048-0.131c1.129-0.158,2.253-0.328,3.376-0.516
			c29.568-4.977,58.899-11.951,87.838-19.881c16.753-4.592,32.536-12.705,49.858-16.66c-8.353,3.973-16.704,7.949-28.72,13.664
			c30.493-5.434,54.866-14.795,76.529-31.521c14.087-10.879,29.047-20.627,43.615-30.887c7.761-7.223,15.529-14.439,23.289-21.658
			C671.372,745.578,655.945,755.047,640.702,764.807z"/>
		<path d="M679.834,708.592c6.781-1.83,13.531-3.775,20.296-5.668c-4.955,18.666-21.99,25.086-35.536,35.047
			c-2.635,1.254-6.868,1.877-7.655,3.863c-6.844,17.307-24.79,18.65-37.773,27.035c-9.976,7.02-19.954,14.037-29.931,21.059
			c-4.212,4.074-8.427,8.146-12.64,12.221c0.719,0.92,1.439,1.846,2.158,2.768c20.646-13.381,41.226-26.854,61.949-40.109
			c15.243-9.76,30.67-19.229,46.014-28.822c18.055-21.869,36.134-43.719,54.151-65.613c5.736-6.975,11.842-13.723,16.788-21.225
			c4.127-6.262,13.614-10.766,7.053-21.77c-1.354-2.268,6.163-9.83,7.943-16.482c-8.741,8.148-17.479,16.299-26.223,24.445
			c-0.901-0.766-1.805-1.529-2.702-2.295c5.642-8.557,11.28-17.109,16.923-25.664c-0.651-0.348-1.302-0.689-1.95-1.033
			c-14.056,15.814-28.111,31.631-42.167,47.445c-1.278-1.158-2.554-2.316-3.834-3.475c7.84-9.004,15.68-18.016,23.519-27.027
			c-1.011-0.875-2.019-1.758-3.03-2.641c-6.139,6.863-11.931,14.078-18.518,20.486c-6.333,6.16-13.482,11.484-20.269,17.178
			c-0.88-1.037-1.767-2.072-2.646-3.107c8.985-8.961,17.968-17.924,26.952-26.885c-0.835-0.871-1.66-1.738-2.486-2.605
			c-8.89,8.264-19.803,15.24-26.115,25.146c-6.607,10.367-13.025,9.215-22.771,7.699c-14.805-2.309-29.44-1.682-40.556,11.842
			c-3.76,4.572-10.617,6.604-13.174,8.104c-12.032-10.301-21.803-18.664-31.579-27.027c-0.777,0.836-1.557,1.672-2.34,2.504
			c7.71,7.715,15.417,15.424,23.131,23.137c-12.704-2.895-21.961-15.625-35.624-4.717c-0.275,0.219,2.398,4.125,3.695,6.311
			c-29.514,11.873-37.577,22.324-31.804,40.42c-3.362-4.695-6.724-9.391-10.078-14.084c1.299,10.582,1.065,22.502,15.274,24.203
			c4.794,0.57,9.771-0.482,14.662-0.729c8.804-0.439,17.61-0.832,26.421-1.246c6.658,0.443,13.315,0.889,19.972,1.334
			C630.169,721.945,655.005,715.289,679.834,708.592z M575.863,710.244c-9.172-4.666-19.141-7.777-28.286-11.42
			c0.406-0.611,1.654-4.785,4.254-5.941c9.336-4.162,21.296-12.648,28.33-9.799c18.762,7.615,35.213,3.66,52.479-1.887
			c-0.273-0.822-0.547-1.643-0.825-2.463c-3.062,1.057-6.131,2.148-11.099,3.924c-0.818,0.293-1.685,0.602-2.613,0.934
			c7.448-5.73,11.645-10.027,16.72-12.611c7.255-3.682,15.457-9.258,22.711-8.539c33.292,3.313,62.687-5.264,89.735-24.186
			c3.45-2.414,8.14-3.059,14.061-5.164c-14.853,18.922-27.91,35.563-40.97,52.205c-0.805-0.572-1.606-1.139-2.407-1.711
			c4.909-7.514,9.821-15.021,14.736-22.533c-9.113,5.438-14.738,14.514-22.807,20.002c-16.016,10.896-32.393,22.703-50.422,28.893
			C632.389,719.236,603.884,724.508,575.863,710.244z"/>
		<path d="M631.741,678.518c0.02,0.059,0.04,0.119,0.061,0.178c0.052-0.02,0.103-0.039,0.155-0.057L631.741,678.518z"/>
		<path d="M557.905,782.961c0.348-0.117,0.7-0.225,1.056-0.32c0.099-0.025,0.197-0.047,0.297-0.07
			c0.259-0.064,0.519-0.131,0.781-0.188c0.111-0.021,0.222-0.039,0.333-0.061c0.254-0.049,0.509-0.098,0.768-0.139
			c0.108-0.018,0.221-0.029,0.331-0.045c0.263-0.037,0.524-0.074,0.789-0.105c0.099-0.01,0.199-0.016,0.299-0.027
			c0.278-0.027,0.56-0.057,0.842-0.076c0.079-0.006,0.159-0.008,0.239-0.014c0.307-0.021,0.613-0.039,0.924-0.051
			c0.046-0.004,0.093-0.004,0.14-0.006c3.685-0.139,7.528,0.195,11.223,0.08c0,0,0.001,0,0.002,0
			c0.076-0.041,0.151-0.088,0.229-0.129c0.04,0.014,0.2,0.117,0.2,0.117l-0.16-0.104c22.754-13.984,45.536-27.92,68.234-41.986
			c6.223-3.855,12.197-8.107,19.36-12.895c0.386,5.264,0.594,8.145,0.803,11.027c13.546-9.961,30.581-16.381,35.536-35.047
			c-28.704,19.248-60.368,27.564-94.794,25.689c-6.656-0.445-13.313-0.891-19.972-1.334c1.189,2.217,2.383,4.441,3.553,6.619
			c-3.977,3.184-8.021,6.418-12.066,9.656c0.622,0.895,1.244,1.789,1.86,2.686c7.236-3.668,14.471-7.334,21.709-11
			c0.581,0.879,1.161,1.758,1.741,2.637c-3.897,2.92-7.793,5.844-11.688,8.766c0.183,0.35,0.367,0.703,0.551,1.053
			c10.596-4.363,21.187-8.723,31.777-13.084c1.003,1.822,2.015,3.646,3.019,5.469c-12.522,7.191-25.635,13.523-37.453,21.732
			c-39.142,27.178-84.384,38.145-129.423,49.469c-8.8,2.211-17.666,3.77-26.575,4.881c-2.365,1.533-4.783,2.979-7.248,4.344
			c31.162-4.168,61.713-12.527,92.133-21.48C531.172,794.932,544.124,787.643,557.905,782.961z"/>
		<path d="M604.611,543.811c-20.723,6.902-42.122,11.971-62.38,19.984c-33.107,13.102-65.711,27.525-98.178,42.174
			c-8.274,3.734-16.502,7.572-24.709,11.451c1.882,0.176,3.776,0.256,5.652,0.205c3.841-0.107,7.299,0.557,10.467,1.826
			c5.817-3.268,11.534-6.689,17.07-10.355c49.228-32.613,107.033-41.959,161.086-61.475c17.097-6.172,33.352-14.672,49.015-24.289
			C643.304,530.186,624.068,537.334,604.611,543.811z"/>
		<path d="M497.591,709.658c-0.59,0.156-1.179,0.313-1.77,0.467c0.814,1.191,1.518,2.412,2.114,3.662
			c0.198-0.053,0.397-0.105,0.596-0.158C498.22,712.307,497.902,710.98,497.591,709.658z"/>
		<path d="M497.325,692.973c-0.398-1.697-0.797-3.396-1.194-5.09c18.01-6.545,36.019-13.098,56.873-20.676
			c-27.558,3.084-46.122,4.385-64.546,19.926c2.523,3.176,2.455,10.338,4.985,13.508c12.07-4.555,21.559-6.123,33.452-10.609
			C517.406,690.979,507.365,691.973,497.325,692.973z"/>
		<path d="M482.813,762.934c-1.474,1.221-2.966,2.416-4.507,3.545c-2.99,2.186-5.823,4.498-8.471,6.965
			c25.11-5.15,49.599-13.607,73.642-24.15C523.239,753.844,503.008,758.393,482.813,762.934z"/>
		<path d="M501.521,774.002c-12.119,1.398-24.237,2.797-36.355,4.193c-1.264,1.408-2.471,2.865-3.612,4.379
			c13.593-1.6,27.184-3.197,40.777-4.797C502.061,776.521,501.79,775.262,501.521,774.002z"/>
		<path d="M553.99,765.705c-32.681,8.623-65.366,17.246-98.053,25.869c-0.447,0.879-0.878,1.77-1.286,2.682
			c33.24-8.77,66.478-17.539,99.717-26.309C554.243,767.201,554.12,766.451,553.99,765.705z"/>
		<path d="M702.827,735.938c-0.495,0.246-0.985,0.496-1.467,0.758c0,0,0.402,0.205,0.459,0.232
			C702.156,736.596,702.491,736.266,702.827,735.938z"/>
		<path d="M718.99,726.855c16.545-16.15,32.272-33.137,45.91-52.039c-20.674,20.383-41.347,40.768-62.073,61.121
			C708.429,733.131,714.719,731.025,718.99,726.855z"/>
		<path fill="#FFFFFF" d="M519.526,203.362c31.525-18.058,64.878-13.889,98.351-7.792c5.723,1.043,11.43,2.162,17.142,3.245
			c0.237-1.847,0.472-3.693,0.704-5.54c-17.98-2.204-35.935-5.834-53.959-6.227c-19.996-0.434-40.061,2.093-60.093,3.332
			c-0.096-2.157-0.185-4.315-0.281-6.472c32.502-1.461,65.003-2.922,97.247-4.37c-3.772-25.079-13.138-33.887-39.384-38.979
			c-37.928-7.357-68.295,3.32-93.789,32.653c-0.647,0.746-1.306,1.48-1.972,2.209c-0.169,0.185-0.335,0.372-0.506,0.555
			c-0.273,0.296-0.553,0.588-0.829,0.881c-0.148,0.155-0.293,0.313-0.441,0.467c-0.317,0.331-0.641,0.658-0.964,0.984
			c-0.111,0.112-0.22,0.227-0.332,0.338c-0.856,0.858-1.731,1.696-2.622,2.513c-0.015,0.013-0.028,0.027-0.043,0.041
			c-11.337,10.364-25.571,17.043-45.978,11.876c-0.002-0.001-0.005-0.002-0.008-0.002c-0.783-0.198-1.576-0.417-2.378-0.65
			c-0.033-0.01-0.066-0.018-0.1-0.028c-0.057-0.017-0.113-0.03-0.171-0.047c0.027,0.03,0.055,0.058,0.082,0.088
			c16.292,18.321,34.25,17.496,50.439,21.505C495.085,217.77,507.141,210.458,519.526,203.362z"/>
		<path fill="#FFFFFF" d="M607.442,131.747c0.397,0.593,0.803,1.168,1.217,1.724c0.015,0.02,0.03,0.038,0.045,0.057
			c0.406,0.542,0.819,1.067,1.242,1.57c0.027,0.031,0.053,0.06,0.08,0.09c0.413,0.488,0.834,0.961,1.266,1.412
			c0.041,0.044,0.086,0.083,0.127,0.127c0.419,0.431,0.844,0.848,1.278,1.242c0.061,0.054,0.123,0.101,0.183,0.154
			c0.423,0.375,0.851,0.737,1.291,1.075c0.08,0.061,0.163,0.114,0.243,0.173c0.425,0.318,0.856,0.626,1.299,0.908
			c0.104,0.065,0.212,0.121,0.316,0.184c0.427,0.261,0.856,0.515,1.299,0.741c0.133,0.067,0.27,0.122,0.403,0.185
			c0.425,0.205,0.852,0.406,1.291,0.579c0.162,0.064,0.334,0.111,0.5,0.17c0.42,0.15,0.84,0.302,1.274,0.423
			c0.2,0.056,0.409,0.09,0.612,0.14c0.412,0.1,0.823,0.204,1.249,0.276c0.241,0.041,0.494,0.057,0.74,0.089
			c0.401,0.052,0.798,0.113,1.211,0.141c0.29,0.019,0.594,0.01,0.889,0.017c0.385,0.009,0.762,0.031,1.156,0.019
			c0.349-0.01,0.714-0.054,1.071-0.081c0.357-0.028,0.706-0.039,1.07-0.084c0.451-0.056,0.92-0.148,1.383-0.23
			c0.288-0.051,0.567-0.083,0.86-0.145c0.766-0.161,1.549-0.358,2.35-0.592c1.094-0.319,3.048,0.864,4.052,1.888
			c14.24,14.485,28.302,9.462,43.724,1.301c10.126-5.357,21.93-7.695,33.172-10.657c2.179-0.573,5.245,2.222,8.904,3.932
			c-23.609,6.702-45.556,13.562-55.754,38.672c2.368,0.15,4.677,0.715,4.914,0.246c14.242-28.431,40.957-30.976,67.586-30.927
			c24.647,0.042,24.643,1.363,42.81-19.997c-10.011,0.79-19.121,1.508-28.178,2.223c-0.64,0.05-1.28,0.101-1.92,0.151
			c-0.256-0.052-0.516-0.098-0.772-0.148c-7.883-1.543-16.019-2.472-23.941-3.915c-0.018-0.003-0.037-0.007-0.054-0.01
			c-0.782-0.142-1.561-0.293-2.337-0.447c-0.143-0.028-0.285-0.054-0.429-0.083c-0.693-0.139-1.382-0.288-2.071-0.438
			c-0.214-0.047-0.429-0.09-0.642-0.138c-0.637-0.143-1.27-0.296-1.902-0.452c-0.258-0.063-0.516-0.12-0.771-0.184
			c-0.596-0.15-1.186-0.313-1.775-0.475c-0.288-0.079-0.577-0.151-0.863-0.232c-0.573-0.163-1.14-0.34-1.707-0.516
			c-0.296-0.092-0.596-0.176-0.89-0.271c-0.584-0.188-1.16-0.394-1.739-0.597c-0.271-0.095-0.545-0.182-0.814-0.281
			c-0.845-0.309-1.68-0.634-2.508-0.978c-1.14-0.474-2.278-0.937-3.414-1.388c-0.525-0.209-1.048-0.407-1.572-0.611
			c-0.608-0.236-1.216-0.477-1.821-0.707c-0.716-0.271-1.429-0.529-2.144-0.79c-0.411-0.15-0.824-0.307-1.235-0.455
			c-0.822-0.295-1.644-0.575-2.465-0.856c-0.299-0.103-0.6-0.211-0.898-0.312c-0.92-0.31-1.838-0.604-2.755-0.896
			c-0.197-0.063-0.395-0.13-0.591-0.191c-0.978-0.306-1.951-0.597-2.925-0.881c-0.137-0.04-0.275-0.084-0.411-0.124
			c-1.008-0.292-2.016-0.567-3.021-0.834c-0.102-0.027-0.202-0.057-0.304-0.083c-1.06-0.279-2.116-0.542-3.172-0.792
			c-0.045-0.011-0.088-0.022-0.132-0.033c-1.087-0.257-2.172-0.497-3.255-0.723c-0.014-0.002-0.027-0.006-0.041-0.009
			c-25.263-5.251-49.423-1.764-72.279,18.47c-0.348,0.309-0.698,0.599-1.046,0.916c0.078,0.132,0.161,0.254,0.24,0.385
			c0.387,0.638,0.78,1.259,1.185,1.861C607.431,131.731,607.437,131.739,607.442,131.747z"/>
		<path fill="#FFFFFF" d="M363.317,844.072c-1.352,0.441-2.704,0.881-4.052,1.33c-3.188,1.063-6.364,2.166-9.53,3.299
			c11.254-0.131,20.962-1.135,27.398-3.064c0.002,0,0.004,0,0.006-0.002l0,0C372.537,845.088,367.927,844.584,363.317,844.072z"/>
		<path fill="#FFFFFF" d="M377.139,845.635c0.325,0.039,0.649,0.074,0.973,0.113C377.788,845.709,377.464,845.674,377.139,845.635
			C377.139,845.635,377.139,845.635,377.139,845.635z"/>
		<path d="M475.256,819.824c-9.29,2.826-18.766,5.016-28.713,7.639c8.834,4.502,32.463,1.83,67.881-12.125
			c19.576-7.709,37.483-19.65,55.945-30.258c-8.832,4.77-17.547,9.859-26.892,13.186
			C521.021,806.254,498.075,812.881,475.256,819.824z"/>
		<path d="M575.928,781.939c-1.86,1.029-3.712,2.08-5.559,3.141c1.987-1.074,3.979-2.137,5.987-3.152c0,0-0.16-0.104-0.2-0.117
			C576.079,781.852,576.004,781.898,575.928,781.939z"/>
		<path d="M394.959,841.303c0.273-0.07,0.536-0.141,0.787-0.207c-5.474-0.678-11.082-1.371-16.772-2.076
			c-5.216,1.688-10.441,3.35-15.652,5.051c4.608,0.512,9.216,1.02,13.817,1.564h0c0.324,0.039,0.648,0.074,0.972,0.113
			c0.737-0.193,1.474-0.387,2.208-0.582h0C385.955,843.682,391.377,842.25,394.959,841.303z"/>
		<path d="M620.711,763.539c-20.657,11.781-42.328,24.137-63.996,36.498c0.112,0.33,0.232,0.66,0.349,0.994
			c10.724-3.703,21.447-7.404,32.171-11.104c9.977-7.021,19.955-14.039,29.931-21.059C619.7,767.02,620.238,765.172,620.711,763.539
			z"/>
		<path fill="#FFFFFF" d="M709.882,681.055c8.068-5.488,13.693-14.564,22.807-20.002c-4.915,7.512-9.827,15.02-14.736,22.533
			c0.801,0.572,1.603,1.139,2.407,1.711c13.06-16.643,26.117-33.283,40.97-52.205c-5.921,2.105-10.61,2.75-14.061,5.164
			c-27.049,18.922-56.443,27.498-89.735,24.186c-7.254-0.719-15.456,4.857-22.711,8.539c-5.075,2.584-9.271,6.881-16.72,12.611
			c0.929-0.332,1.795-0.641,2.613-0.934c4.968-1.775,8.037-2.867,11.099-3.924l0,0c-0.005-0.014-0.009-0.027-0.013-0.039
			c-0.021-0.059-0.041-0.119-0.061-0.178c0.146-0.02,0.293-0.041,0.439-0.061c13.924-18.275,34.804-4.529,51.456-10.859
			c5.819-2.211,12.92-1.043,19.445-1.416c0.047,0.871,0.096,1.744,0.143,2.619c-23.68,3.221-47.359,6.436-71.044,9.656
			c-0.055,0.072-0.112,0.135-0.167,0.209c-0.066,0.021-0.134,0.045-0.199,0.068c0.278,0.822,0.552,1.641,0.825,2.463
			c-17.266,5.547-33.717,9.502-52.479,1.887c-7.034-2.85-18.994,5.637-28.33,9.799c-2.6,1.156-3.848,5.33-4.254,5.941
			c9.146,3.643,19.114,6.754,28.286,11.42c28.021,14.264,56.525,8.992,83.597-0.297
			C677.489,703.758,693.866,691.951,709.882,681.055z"/>
		<path fill="#FFFFFF" d="M605.336,728.613c34.426,1.875,66.09-6.441,94.794-25.689c-6.765,1.893-13.515,3.838-20.296,5.668
			C655.005,715.289,630.169,721.945,605.336,728.613z"/>
		<path d="M703.082,666.182c-6.525,0.373-13.626-0.795-19.445,1.416c-16.652,6.33-37.532-7.416-51.456,10.859
			c23.685-3.221,47.364-6.436,71.044-9.656C703.178,667.926,703.129,667.053,703.082,666.182z"/>
		<path d="M632.181,678.457c-0.146,0.02-0.293,0.041-0.439,0.061c0,0,0.216,0.121,0.272,0.148
			C632.068,678.592,632.126,678.529,632.181,678.457z"/>
		<path d="M495.534,709.695"/>
		<path d="M454.979,778.867c-0.626,1.215-1.325,2.402-1.831,3.668c-4.6,11.529-13.031,19.67-23.154,26.346
			c-12.25,8.076-25.653,13.738-39.404,18.584c-12.604,4.443-25.376,8.404-38.011,12.762c-6.756,2.33-13.362,5.092-20.065,7.58
			c-4.02,1.492-8.093,2.838-12.146,4.238c-2.732,0.945-5.519,1.018-8.264,0.176c-5.229-1.604-10.452-1.285-15.678-0.111
			c-9.158,2.057-18.289,4.213-27.692,4.916c-15.866,1.189-31.707,1.381-47.48-1.082c-10.008-1.563-19.747-4.076-28.64-9.131
			c-6.177-3.514-11.308-8.119-14.523-14.605c-2.127-4.291-2.926-8.723-2.273-13.557c1.745-12.92,4.809-25.553,7.826-38.207
			c3.136-13.146,6.037-26.34,6.524-39.92c0.373-10.41-0.874-20.488-6.162-29.744c-1.046-1.832-1.978-3.752-2.743-5.717
			c-4.427-11.371-3.402-22.383,2.967-32.682c1.916-3.1,4.905-5.584,7.616-8.123c2.448-2.293,5.192-4.268,7.795-6.393
			c6.982-5.705,10.394-13.189,10.864-22.08c0.076-1.434,0.569-2.402,1.642-3.316c14.474-12.33,31.064-19.309,50.188-19.762
			c7.149-0.17,14.128,1.316,21.029,2.971c13.283,3.184,26.724,4.406,40.369,4.174c11.313-0.191,22.65-0.309,33.946,0.205
			c15.782,0.719,29.943,6.59,42.739,15.58c7.214,5.07,13.951,10.818,20.886,16.283c3.174,2.502,6.292,5.078,9.47,7.578
			c1.16,0.91,2.417,1.699,3.85,2.299c-0.279-0.314-0.54-0.643-0.836-0.939c-8.804-8.811-17.87-17.32-27.956-24.686
			c-16.545-12.08-35.106-18.25-55.525-18.684c-12.747-0.27-25.503-0.068-38.254-0.213c-11.106-0.125-22.135-1.041-32.868-4.176
			c-0.642-0.188-1.26-0.453-1.846-0.984c6.634-0.051,13.273-0.295,19.901-0.115c13.425,0.361,24.445,0.131,37.852,0.846
			c2.678-0.689,6.603-4.787,10.596-6.234c-1.038-0.127,0.014,0.002,0,0c-1.619-0.195-3.239-0.383-4.858-0.559
			c-2.214-0.242-4.431-0.465-6.648-0.672c-11.457-1.066-22.946-1.672-34.462-1.818c-21.108-0.27-42.044,1.105-62.426,7.15
			c-10.188,3.023-19.776,7.354-28.514,13.49c-1.719,1.207-2.521,2.602-2.771,4.711c-0.979,8.262-4.012,15.666-10.282,21.344
			c-4.282,3.879-8.922,7.357-13.305,11.129c-2.31,1.988-4.663,3.984-6.428,6.473c-0.53,0.748-1.013,1.535-1.417,2.385
			c-1.149,2.412-2.005,4.859-2.607,7.33c-1.592,6.539-1.352,13.248,0.332,19.967c1.713,6.838,4.067,13.529,6.426,20.186
			c0.294,0.832,0.56,1.668,0.824,2.502c0.49,1.545,0.934,3.098,1.318,4.654c1.005,4.072,1.638,8.193,1.885,12.379
			c0.154,2.602,0.172,5.227,0.016,7.883c-0.465,7.889-1.707,15.633-3.367,23.305c-0.694,3.205-1.452,6.4-2.27,9.584
			c-1.876,7.305-3.76,14.605-5.329,21.969c-1.489,6.986-2.694,14.031-3.318,21.189c-0.172,1.961-0.497,4.09,0.05,5.898
			c1.146,3.797,2.747,7.299,4.735,10.541c2.785,4.543,6.351,8.559,10.694,12.027c7.716,6.16,16.572,9.916,26.116,12.102
			c18.86,4.32,37.915,3.855,57.013,2.166c10.69-0.943,21.37-2.258,32.082-2.643c12.743-0.457,24.963-2.742,36.814-7.428
			c0.516-0.205,1.037-0.398,1.554-0.602c4.039-1.578,8.104-3.096,12.19-4.553c0.001,0,0.001,0,0.001,0
			c3.166-1.133,6.342-2.236,9.53-3.299c1.348-0.449,2.701-0.889,4.052-1.33c0.001,0,0.003-0.002,0.004-0.002
			c5.211-1.701,10.436-3.363,15.652-5.051c9.714-3.141,19.39-6.393,28.848-10.287c5.941-2.445,11.731-5.146,17.298-8.227
			c2.465-1.365,4.882-2.811,7.248-4.344c3.884-2.518,7.635-5.26,11.193-8.334c4.441-3.836,8.612-7.986,11.029-13.438
			c0.02-0.047,0.042-0.09,0.063-0.135c0.408-0.912,0.839-1.803,1.286-2.682c1.63-3.209,3.51-6.201,5.616-9
			c1.141-1.514,2.348-2.971,3.612-4.379c1.479-1.65,3.038-3.232,4.67-4.752c2.648-2.467,5.481-4.779,8.471-6.965"/>
		<path d="M450.184,690.26"/>
		<path d="M419.205,617.406"/>
		<path fill="#FFFFFF" d="M483.657,704.049c-8.171-9.074-18.646-13.148-30.671-13.646c-0.936-0.037-1.868-0.094-2.802-0.143
			c0.016-0.174,0.03-0.346,0.046-0.518c6.637-2.293,12.963,1.514,19.599,1.316c-1.611-2.955-3.398-5.625-4.587-8.537
			c-2.75-6.729-5.303-13.543-7.762-20.383c-2.59-7.207-5.147-14.408-9.131-21.008c-5.83-9.658-14.042-15.799-25.38-17.438
			c-2.727-0.395-5.454-0.787-8.179-1.191c-2.696-0.398-5.391-0.807-8.083-1.234c-0.857-0.139-1.715-0.277-2.571-0.418
			c-20.903-3.445-41.917-6.016-63.06-7.262c-1.189-0.07-2.379-0.121-3.569-0.184c-1.847-0.1-3.694-0.205-5.542-0.289
			c-11.568-0.529-23.149-0.805-34.727-1.115c-6.627-0.18-13.267,0.064-19.901,0.115c0.586,0.531,1.205,0.797,1.846,0.984
			c10.733,3.135,21.762,4.051,32.868,4.176c12.751,0.145,25.507-0.057,38.254,0.213c20.419,0.434,38.979,6.604,55.525,18.684
			c10.086,7.365,19.152,15.875,27.956,24.686c0.297,0.297,0.558,0.625,0.836,0.939c-1.433-0.6-2.689-1.389-3.85-2.299
			c-3.178-2.5-6.296-5.076-9.47-7.578c-6.935-5.465-13.672-11.213-20.886-16.283c-12.796-8.99-26.957-14.861-42.739-15.58
			c-11.296-0.514-22.633-0.396-33.946-0.205c-13.646,0.232-27.086-0.99-40.369-4.174c-6.901-1.654-13.88-3.141-21.029-2.971
			c-19.123,0.453-35.713,7.432-50.188,19.762c-1.073,0.914-1.566,1.883-1.642,3.316c-0.47,8.891-3.882,16.375-10.864,22.08
			c-2.604,2.125-5.348,4.1-7.795,6.393c-2.71,2.539-5.7,5.023-7.616,8.123c-6.369,10.299-7.394,21.311-2.967,32.682
			c0.765,1.965,1.697,3.885,2.743,5.717c5.288,9.256,6.535,19.334,6.162,29.744c-0.487,13.58-3.388,26.773-6.524,39.92
			c-3.018,12.654-6.081,25.287-7.826,38.207c-0.653,4.834,0.146,9.266,2.273,13.557c3.215,6.486,8.346,11.092,14.523,14.605
			c8.893,5.055,18.632,7.568,28.64,9.131c15.773,2.463,31.614,2.271,47.48,1.082c9.403-0.703,18.535-2.859,27.692-4.916
			c5.226-1.174,10.448-1.492,15.678,0.111c2.745,0.842,5.532,0.77,8.264-0.176c4.053-1.4,8.127-2.746,12.146-4.238
			c6.703-2.488,13.309-5.25,20.065-7.58c12.635-4.357,25.407-8.318,38.011-12.762c13.75-4.846,27.154-10.508,39.404-18.584
			c10.123-6.676,18.554-14.816,23.154-26.346c0.505-1.266,1.204-2.453,1.831-3.668c2.675-5.184,6.274-9.41,11.914-11.533
			c0.337-0.127,0.629-0.371,1.007-0.602c-0.198-0.566-0.376-1.076-0.548-1.57c-2.099,0.195-3.702,2.465-6.338,1.17
			c0.889-0.336,1.461-0.559,2.038-0.77c6.374-2.338,12.189-5.627,17.314-10.107C496.477,741.377,497.896,719.863,483.657,704.049z
			 M430.811,688.98c-0.505,1.648-1.942,2.768-3.846,3.301c-2.968,0.832-5.696,0.369-8.402-1.953
			c2.608-0.156,5.037,1.135,7.188-0.926c-1.855-0.559-3.598-0.932-5.205-1.615c-1.565-0.666-2.993-1.654-4.48-2.5
			c0.115-0.291,0.231-0.582,0.346-0.875C421.133,685.91,425.854,687.408,430.811,688.98z M419.34,696.807
			c-1.653-1.006-3.306-2.01-4.958-3.016c0.08-0.184,0.16-0.367,0.24-0.551C416.91,692.729,418.633,693.809,419.34,696.807z
			 M256.34,618.605c5.996,0.121,11.657,1.865,17.256,3.754c9.779,3.299,19.883,4.633,30.114,4.771
			c11.559,0.156,23.128-0.369,34.688-0.234c25.394,0.295,48.984,6.389,69.316,22.42c5.851,4.613,10.916,9.992,15.329,15.986
			c0.84,1.145,1.594,2.355,2.389,3.535c-0.112,0.104-0.223,0.207-0.334,0.311c-0.586-0.629-1.174-1.254-1.76-1.883
			c-11.554-12.439-24.648-22.836-40.389-29.453c-17.747-7.461-36.214-10.691-55.447-8.002c-11.551,1.617-23.013,0.797-34.349-1.33
			c-12.28-2.303-24.448-5.199-36.653-7.893c-1.909-0.424-3.597-0.389-5.352,0.635c-1.994,1.162-4.143,2.061-6.225,3.072
			c-0.101-0.225-0.201-0.449-0.303-0.676C247.744,620.166,251.661,618.514,256.34,618.605z M355.669,720.133
			c2.944,0.707,5.938,1.23,8.934,1.686c3.921,0.594,7.87,1,11.791,1.586c1.526,0.229,1.868,1.35,1.63,3.002
			c-4.757-3.033-9.949-2.848-15.074-3.182c-2.584-0.168-5.195-0.584-7.688-1.271c-2.946-0.811-4.307-3.064-4.063-5.902
			c0.193-2.234,1.45-2.789,3.118-1.633c-0.521,0.797-1.487,1.6-1.466,2.379C352.896,718.465,354.065,719.748,355.669,720.133z
			 M353.223,689.295c-4.931,1.248-9.751,2.934-14.673,4.436c-1.677-1.438-3.393-2.871-5.065-4.354
			c-1.161-1.029-2.384-2.025-3.368-3.211c-2.945-3.553-2.839-6.729,0.182-10.221c2.906-3.359,6.428-5.98,10.524-7.561
			c19.575-7.551,38.827-7.008,57.395,3.148c6.773,3.705,11.205,9.525,12.948,17.229c0.381,1.686-0.001,2.537-1.597,3.305
			c-3.486,1.674-6.911,1.24-10.346,0.094c-3.535-1.18-6.953-2.785-10.552-3.68C376.811,685.525,364.955,686.328,353.223,689.295z
			 M342.235,721.799c-0.138-0.691-0.739-1.65-1.331-1.834c-3.255-1.016-6.575-1.818-9.867-2.717
			c-0.716-0.195-1.424-0.443-2.107-0.736c-2.026-0.865-2.206-1.494-0.789-3.268c1.926-2.41,4.639-2.973,7.413-2.365
			c2.765,0.605,5.613,1.389,8.071,2.738c5.966,3.273,6.111,4.326,5.366,10.385c0.172,0.07,0.344,0.143,0.517,0.213
			c-1.293,3.123-2.251,6.443-3.962,9.314c-2.156,3.617-5.521,4.281-9.185,2.662c-1.073-0.475-1.283-1.115-1.195-2.164
			c0.2-2.398,1.734-3.783,3.61-4.883C341.629,727.471,342.882,725.047,342.235,721.799z M332.406,728.008
			c-0.353,1.592-1.075,3.105-1.802,5.135c-3.849-4.088-8.36-4.061-12.863-4.23c-2.781-0.104-5.56-0.432-8.318-0.814
			c-0.938-0.129-1.81-0.729-2.686-1.102c0.703-3.039,3.053-4.957,6.627-5.51c5.751-0.889,11.261,0.152,16.643,2.131
			C333.047,724.732,333.121,724.773,332.406,728.008z M343.39,642.943c1.412-1.41,2.797-1.246,3.911-0.176
			c-2.357,2.127-4.774,4.127-6.972,6.348c-1.603,1.617-2.401,3.697-2.53,6.051c-0.078,1.402-0.493,2.791-0.842,4.643
			c-1.84-3.828-0.924-9.496,1.587-11.971C340.18,646.227,341.766,644.564,343.39,642.943z M341.883,638.598
			c2.145,0.008,4.291-0.033,6.434,0.031c15.077,0.447,29.658,3.166,43.409,9.6c5.55,2.598,10.764,5.723,15.079,10.15
			c3.116,3.197,5.519,6.816,6.409,11.133c-2.026-2.693-3.891-5.639-6.21-8.168c-5.98-6.523-13.635-10.488-21.797-13.572
			c-13.386-5.059-27.324-7.447-41.518-8.611c-0.603-0.049-1.201-0.143-1.801-0.215C341.886,638.83,341.884,638.715,341.883,638.598z
			 M290.688,700.84c-0.123,1.326-0.66,2.227-1.823,2.781c-2.353,1.125-4.695,2.277-7.075,3.344
			c-2.859,1.283-5.636,2.633-7.505,5.324c-0.704,1.014-0.852,1.887-0.294,3.082c1.955,4.186,3.979,8.313,7.189,11.717
			c0.596,0.633,1.227,1.238,1.892,1.799c3.958,3.332,4.966,3.428,9.486,0.963c2.429-1.326,2.491-1.313,4.72,1.037
			c-1.417,2.752-3.06,5.367-5.638,7.242c-2.667,1.943-5.115,2.17-7.75,0.186c-2.21-1.664-4.231-3.672-6.003-5.803
			c-2.582-3.105-4.813-6.5-7.298-9.691c-1.216-1.559-2.669-2.932-4.004-4.381c-1.337,0.906-2.446,1.828-3.7,2.463
			c-1.659,0.844-2.493,0.426-3.081-1.328c-0.413-1.23-0.737-2.49-1.197-4.07c-1.771,0.543-3.483,0.99-5.14,1.594
			c-2.685,0.977-5.279,2.244-8.014,3.031c-1.949,0.559-4.066,0.527-6.108,0.76c-0.037-0.219-0.074-0.436-0.11-0.654
			c0.479-0.168,0.952-0.35,1.437-0.498c9.478-2.906,18.092-7.607,26.497-12.742c5.363-3.275,10.723-6.557,16.039-9.908
			c0.575-0.363,1.102-1.178,1.205-1.85c0.489-3.199,0.774-6.428,1.24-9.629c0.16-1.1-0.194-1.695-1.074-2.287
			c-4.463-3.006-9.469-4.639-14.634-5.857c-7.866-1.859-15.775-3.547-23.601-5.564c-2.97-0.766-5.757-2.24-8.882-3.494
			c2.495-5.959,6.824-8.959,12.555-9.988c7.426-1.334,14.622-0.02,21.639,2.432c5.305,1.854,10.437,4.172,14.791,7.754
			c2.459,2.021,4.488,4.594,6.551,7.051c0.649,0.773,1.104,1.035,2.109,0.967c2.576-0.176,5.175-0.287,7.745-0.119
			c0.864,0.057,2.396,1.08,2.359,1.568c-0.094,1.252-0.584,2.826-1.491,3.58c-1.225,1.018-2.936,1.592-4.53,1.994
			c-6.615,1.668-6.626,1.617-7.436,8.299C291.396,694.906,290.963,697.865,290.688,700.84z M194.598,685.861
			c-0.185,2.289-0.539,4.566-0.897,6.836c-0.129,0.826-0.492,1.615-0.749,2.422c-0.207,0.016-0.414,0.031-0.621,0.043
			c-0.168-1-0.624-2.053-0.457-2.99c0.866-4.834,1.855-9.645,2.909-14.439c0.131-0.598,0.805-1.303,1.393-1.531
			c4.08-1.588,8.205-3.064,12.315-4.574c0.166,0.283,0.331,0.568,0.497,0.854c-0.984,0.713-1.91,1.531-2.969,2.105
			c-1.083,0.588-2.261,1.082-3.458,1.361C197.287,677.182,195.011,680.723,194.598,685.861z M200.564,706.574
			c-5.398-0.232-9.147-4.795-8.813-10.713C194.694,699.439,197.62,702.996,200.564,706.574z M200.387,688.16
			c1.608-4,3.746-6.82,7.505-8.156c4.996-1.775,9.968-1.088,14.822,0.486c7.478,2.426,14.269,6.068,19.784,11.838
			c0.39,0.408,1.456,0.578,2.002,0.355c1.778-0.725,3.432-1.75,5.194-2.518c0.824-0.359,1.802-0.602,2.687-0.541
			c2.577,0.18,3.395,1.533,2.555,3.926c-1.045,2.979-2.968,5.014-6.163,5.58c-1.583,0.279-3.22,0.66-4.791,0.521
			c-4.439-0.387-8.856-1.021-13.367-1.566c-0.039-0.287-0.112-0.65-0.132-1.014c-0.319-5.814-2.896-9.045-8.669-9.535
			c-4.722-0.398-9.523,0.088-14.287,0.229C205.309,687.83,203.094,688.008,200.387,688.16z M290.221,650.139
			c-1.116-1.383-1.996-2.955-3.188-4.758c1.267-0.209,2.142-0.354,2.934-0.482c1.046,2,2.032,3.854,2.98,5.725
			c0.158,0.313,0.251,0.717,0.211,1.059c-0.537,4.617-1.104,9.232-1.662,13.846c-0.271,0.029-0.541,0.059-0.811,0.088
			c-0.208-1.41-0.673-2.842-0.559-4.225c0.157-1.902,0.72-3.775,1.17-5.648C291.788,653.699,291.615,651.865,290.221,650.139z
			 M250.035,634.352c10.945-2.639,21.799-2.512,32.668,0.066c3.621,0.859,7.165,2.045,10.735,3.111
			c0.709,0.213,1.404,0.51,2.062,0.854c2.164,1.125,2.274,1.641,0.923,3.6c-3.978-1.586-7.861-3.391-11.905-4.691
			c-9.107-2.93-18.436-4.189-27.944-2.346c-7.75,1.504-14.068,5.18-17.664,12.596c-0.101,0.209-0.266,0.387-0.401,0.578
			C240.15,641.697,242.626,636.137,250.035,634.352z M200.495,719.002c-0.26-0.154-0.517-0.293-0.763-0.453
			c-3.215-2.092-6.231-4.619-9.685-6.184c-5.772-2.613-8.47-6.662-9.102-12.996c-1.688-16.918,7.954-31.836,23.998-36.197
			c1.123-0.307,2.485-0.293,3.601,0.035c5.312,1.561,10.709,1.295,16.119,1.027c2.518-0.125,4.994,0.004,7.193,1.428
			c0.639,0.414,1.192,0.961,1.785,1.447c-0.061,0.125-0.123,0.25-0.186,0.375c-1.184-0.234-2.368-0.465-3.552-0.705
			c-9.093-1.848-18.154-2.16-27.105,0.734c-14.362,4.646-21.213,16.264-19.4,32.016c0.604,5.242,2.919,8.566,7.704,10.572
			c2.732,1.145,5.295,2.709,7.875,4.188C200.784,715.322,201.343,716.916,200.495,719.002z M415.112,810.936
			c-16.848,7.916-34.516,13.418-52.579,17.707c-23.675,5.623-47.7,8.521-72.025,9.057c-20.772,0.457-41.434-0.789-61.978-3.85
			c-7.66-1.139-15.126-3.078-22.005-6.781c-5.721-3.08-10.442-7.283-13.243-13.232c-1.424-3.025-0.924-6.32-0.077-9.473
			c0.14-0.521,0.868-0.883,1.325-1.318c0.178,0.076,0.356,0.152,0.535,0.229c-0.316,2.604-0.492,5.234-0.993,7.801
			c-0.356,1.82,0.236,3.045,1.417,4.316c5.931,6.393,13.451,10.131,21.506,12.965c12.139,4.268,24.771,6.053,37.51,7.07
			c19.701,1.572,39.403,1.451,59.066-0.711c28.517-3.137,56.136-9.99,82.935-20.191c5.932-2.258,11.86-4.527,18.292-4.924
			c0.711-0.045,1.429-0.006,2.143-0.006c0.025,0.113,0.052,0.223,0.076,0.336C416.382,810.264,415.762,810.629,415.112,810.936z
			 M251.262,814.395c0.014-0.158,0.029-0.318,0.043-0.48c8.201,0.994,16.397,2.039,24.606,2.963
			c5.182,0.584,10.379,1.049,15.579,1.453c3.728,0.291,7.349,0.859,10.648,2.807C285.229,818.488,267.879,819.102,251.262,814.395z
			 M326.291,827.172c11.846-2.164,23.196-6.039,34.595-9.799c9.553-3.152,19.191-6.061,28.864-8.824
			c2.996-0.857,6.228-0.893,9.351-1.305c-0.003,0.164-0.007,0.324-0.01,0.488c-20.309,6.438-40.53,13.164-60.956,19.201
			c-11.673,3.449-23.797,4.611-36.017,3.596c-2.785-0.23-5.537-0.832-8.318-1.109c-5.012-0.504-10.043-0.824-15.053-1.348
			c-5.12-0.533-10.224-1.219-15.33-1.922c7.067,0.576,14.136,1.146,21.202,1.73C298.534,829.031,312.436,829.703,326.291,827.172z
			 M260.335,826.326c-10.759-1.143-21.33-1.859-31.456-5.203c-6.17-2.039-11.857-4.861-15.5-10.625
			c-1.521-2.402-2.315-5.029-2.537-8.268c6.907,12.297,18.529,16.717,30.763,20.006C247.71,823.877,253.966,824.953,260.335,826.326
			z M453.829,737.955c-2.228-0.563-4.421-1.271-6.611-1.975c-1.45-0.463-2.533-0.049-3.437,1.121
			c-2.341,3.027-4.302,6.135-3.064,10.262c0.137,0.461-0.29,1.373-0.731,1.684c-5.552,3.91-9.976,8.967-14.467,13.971
			c-5.482,6.107-10.83,12.363-16.636,18.154c-9.855,9.83-22.062,16.064-34.655,21.598c-18.875,8.293-38.578,11.943-59.214,11.211
			c-17.136-0.609-34.176-1.979-51.078-4.84c-14.674-2.484-29.142-5.705-42.991-11.453c-9.487-3.936-15.06-10.758-17.557-20.51
			c-2.258-8.824-2.832-17.785-2.556-26.83c0.325-10.627,1.721-21.139,5.189-31.191c1.497-4.336,4.055-8.375,6.551-12.279
			c2.289-3.58,4.648-6.986,5.269-11.352c0.327-2.293,1.276-2.732,3.43-2.016c0.594,0.195,1.327,1.02,1.382,1.611
			c0.274,2.896,0.341,5.814,0.478,8.725c0.006,0.123-0.018,0.248-0.025,0.373c-0.638,11.553-1.279,9.961,7.379,17.949
			c8.902,8.213,19.728,13.098,31.277,16.391c16.272,4.637,32.938,5.742,49.748,5.098c34.723-1.33,68.333-8.861,101.542-18.52
			c7.042-2.049,14.008-4.355,21.028-6.475c1.261-0.379,1.847-0.975,1.868-2.313c0.017-0.98,0.233-1.979,0.493-2.934
			c0.823-3.023,2.212-3.852,5.535-3.271c-0.026,0.775-0.041,1.574-0.083,2.371c-0.244,4.674,1.168,8.766,4.637,11.938
			c2.426,2.221,5.16,4.1,7.63,6.273c2.07,1.822,3.959,3.85,6.071,5.926C457.981,738.424,455.918,738.48,453.829,737.955z
			 M453.51,707.594c-4.752-2.145-9.761-2.85-14.874-3.164c-0.469-0.029-1.044,0.047-1.413,0.303
			c-7.276,5.053-15.605,6.623-24.185,7.189c-9.285,0.611-18.466-0.154-27.069-3.951c-3.06-1.352-5.961-3.383-8.443-5.643
			c-3.557-3.24-4.831-8.23-3.754-12.58c1.473,0.771,3.003,1.336,4.25,2.277c2.028,1.527,4.053,3.137,5.765,4.998
			c8.141,8.865,18.165,10.426,29.211,7.479c4.364-1.164,8.518-3.107,12.791-4.629c11.243-4.004,22.131-2.943,32.302,3.105
			c9.252,5.502,14.603,13.691,14.912,24.732c0.237,8.521-5.562,18.342-13.287,22.504c-0.964-2.5-0.482-4.9,0.517-7.188
			c0.893-2.045,1.885-4.074,3.079-5.953C468.948,728.205,465.62,713.061,453.51,707.594z M481.428,737.84
			c-1.384,4.568-2.864,9.107-4.359,13.643c-0.159,0.486-0.514,1.094-0.938,1.277c-4.087,1.777-8.156,3.621-12.348,5.117
			c-1.568,0.561-3.444,0.26-5.358-0.084c13.785-1.156,19.339-10.299,22.214-22.127c0.197-0.029,0.396-0.061,0.592-0.092
			C481.31,736.334,481.633,737.166,481.428,737.84z M482.099,735.277c-0.203,0.008-0.405,0.016-0.606,0.023
			c-0.08-0.826-0.304-1.668-0.217-2.479c0.546-5.004,1.271-9.992,1.694-15.008c0.14-1.668-0.17-3.49-0.726-5.084
			c-3.233-9.266-9.934-14.689-19.375-16.752c-4.797-1.047-9.677-1.715-14.518-2.572c-0.88-0.156-1.745-0.396-2.616-0.6
			c0.042-0.256,0.082-0.512,0.123-0.77c5.045,0.596,10.153,0.883,15.114,1.887c3.664,0.74,7.342,2.027,10.656,3.756
			c8.689,4.529,11.946,12.393,12.305,21.748C484.14,724.807,483.268,730.064,482.099,735.277z"/>
		<path d="M220.945,797.688c13.849,5.748,28.316,8.969,42.991,11.453c16.901,2.861,33.941,4.23,51.078,4.84
			c20.636,0.732,40.339-2.918,59.214-11.211c12.593-5.533,24.8-11.768,34.655-21.598c5.807-5.791,11.154-12.047,16.636-18.154
			c4.492-5.004,8.915-10.061,14.467-13.971c0.441-0.311,0.868-1.223,0.731-1.684c-1.237-4.127,0.723-7.234,3.064-10.262
			c0.904-1.17,1.987-1.584,3.437-1.121c2.19,0.703,4.383,1.412,6.611,1.975c2.089,0.525,4.152,0.469,6.403-1.303
			c-2.112-2.076-4.001-4.104-6.071-5.926c-2.47-2.174-5.204-4.053-7.63-6.273c-3.468-3.172-4.88-7.264-4.637-11.938
			c0.042-0.797,0.057-1.596,0.083-2.371c-3.322-0.58-4.712,0.248-5.535,3.271c-0.26,0.955-0.477,1.953-0.493,2.934
			c-0.021,1.338-0.607,1.934-1.868,2.313c-7.02,2.119-13.986,4.426-21.028,6.475c-33.208,9.658-66.819,17.189-101.542,18.52
			c-16.81,0.645-33.476-0.461-49.748-5.098c-11.55-3.293-22.375-8.178-31.277-16.391c-8.659-7.988-8.018-6.396-7.379-17.949
			c0.007-0.125,0.032-0.25,0.025-0.373c-0.137-2.91-0.204-5.828-0.478-8.725c-0.056-0.592-0.788-1.416-1.382-1.611
			c-2.154-0.717-3.104-0.277-3.43,2.016c-0.621,4.365-2.98,7.771-5.269,11.352c-2.497,3.904-5.055,7.943-6.551,12.279
			c-3.468,10.053-4.865,20.564-5.189,31.191c-0.276,9.045,0.298,18.006,2.556,26.83C205.885,786.93,211.458,793.752,220.945,797.688
			z M217.615,784.785c0.774,0.303,1.557,0.885,2.319,0.859c2.963-0.102,3.963-1.436,3.352-4.393
			c-0.325-1.574-0.917-3.09-1.315-4.648c-0.394-1.539-0.392-3.041,0.877-4.557c4.826,5.729,6.616,12.494,8.147,19.973
			C226.088,789.727,220.683,789.43,217.615,784.785z M305.507,804.676c-8.608,1.713-16.832-0.742-25.271-1.516
			c-0.372-6.867-0.735-13.594-1.113-20.578c9.324,1.881,18.443,1.408,27.74-0.115C306.357,789.977,303.448,797.084,305.507,804.676z
			 M238.247,793.289c2.143-2.92,0.845-5.666-0.379-8.416c-1.102-2.477-2.2-4.955-3.301-7.432c0.166-0.211,0.33-0.422,0.496-0.633
			c3.606,1.393,7.213,2.785,11.051,4.268c-0.696,5.588,2.804,10.658,3.307,16.619C245.404,796.66,241.536,796.004,238.247,793.289z
			 M258.855,799.141c-0.331-0.148-0.642-0.584-0.749-0.949c-1.429-4.883-2.826-9.777-4.215-14.672
			c-0.201-0.711-0.321-1.445-0.478-2.158c7.509-2.846,16.467,1.283,18.468,8.857c1.015,3.838,1.089,7.926,1.616,12.127
			C268.045,802.064,263.325,801.162,258.855,799.141z M352.841,799.313c0.185,0.627,0.109,1.33,0.16,2.102
			c-6.353,1.094-12.561,2.357-18.825,3.178c-4.728,0.621-9.531,0.92-14.297,0.893c-2.728-0.016-5.45-0.967-7.877-1.438
			c0.515-7.762,1.001-15.096,1.493-22.521c12.346-0.113,23.716-3.076,35.36-6.008c-0.113,0.936-0.15,1.553-0.268,2.156
			c-0.847,4.35-0.259,8.48,1.43,12.59C351.214,793.174,351.955,796.277,352.841,799.313z M361.177,798.729
			c-1.151-3.566-2.024-6.916-3.311-10.1c-1.661-4.113-2.949-8.213-1.807-12.666c0.153-0.596,0.888-1.402,1.44-1.479
			c11.396-1.564,22.299-4.93,33.05-8.875c0.344-0.125,0.702-0.211,1.231-0.369c-1.489,6.201-1.041,11.955,3.079,17.303
			C383.225,787.555,372.875,794.984,361.177,798.729z M411.932,767.164c-2.503,2.951-5.031,5.863-8.595,7.586
			c-1.156,0.559-2.402,0.93-3.576,1.375c-2.511-4.514-1.537-9.916,2.446-13.496c4.487-4.033,9.984-5.631,15.842-6.244
			c0.802-0.084,1.611-0.092,2.417-0.098c0.364-0.004,0.729,0.078,0.797,0.088C418.151,759.967,415.008,763.535,411.932,767.164z
			 M435.111,727c0.496-0.021,0.994-0.029,1.489-0.004c0.43,0.021,0.857,0.098,1.587,0.186c-0.951,6.822-4.118,12.08-9.557,15.938
			c-6.438,4.566-13.816,6.344-21.535,7.014c-1.593,0.139-3.195,0.184-5.075,0.285c1.839-3.455,1.548-6.951,1.682-10.395
			c0.111-2.855,0.205-2.717,2.852-3.664c4.557-1.631,9.053-3.439,13.537-5.268C424.937,729.113,429.797,727.23,435.111,727z
			 M353.053,746.398c14.569-2.363,29.008-4.703,44.039-7.143c-0.616,2.104-0.95,3.643-1.513,5.094
			c-1.863,4.805-5.054,8.547-9.942,10.242c-4.548,1.578-9.276,2.705-13.994,3.705c-5.696,1.209-11.464,2.074-17.357,3.117
			C353.89,756.6,353.476,751.551,353.053,746.398z M312.302,751.439c10.402-0.795,20.8-1.639,31.201-2.455
			c0.601-0.049,1.21,0.023,2.047,0.043c0.438,5.18,0.864,10.225,1.301,15.383c-11.863,0.336-23.476,3.734-35.328,1.256
			c-2.545-0.531-2.57-0.42-2.257-3.029c0.372-3.086,0.797-6.168,1.097-9.264C310.487,752.092,311.001,751.537,312.302,751.439z
			 M278.172,759.418c0.369-1.18,0.783-2.35,1.261-3.488c0.786-1.877,1.639-3.723,2.346-5.316c7.186-0.02,14.415-0.039,21.874-0.057
			c-0.572,4.717-1.101,9.086-1.651,13.627c-0.534-0.014-1.07,0.014-1.595-0.049c-6.859-0.822-13.711-1.699-20.577-2.455
			C278.246,761.506,277.715,760.875,278.172,759.418z M271.654,758.504c-0.034,1.563-0.418,2.184-2.173,1.932
			c-7.193-1.033-14.452-1.725-21.22-4.67c-1.067-0.465-2.106-0.994-2.743-1.297c1.612-4.07,3.134-7.914,4.752-11.996
			c7.189,5.07,15.823,3.869,23.26,7.521C271.218,752.51,271.718,755.572,271.654,758.504z M242.41,741.422
			c-0.622,1.604-1.251,3.252-2.201,4.666c-1.779,2.652-3.417,5.236-1.741,8.59c-3.162-1.219-6.023-2.322-9.304-3.586
			c0.034-5.604-2.501-12.152,3.39-17.531c2.65,3.014,5.869,4.902,9.382,6.371C242.263,740.068,242.563,741.027,242.41,741.422z
			 M216.9,718.305c0.194,0.104,0.389,0.207,0.583,0.309c-0.91,1.736-1.82,3.473-2.729,5.207c-0.285-0.121-0.57-0.24-0.856-0.361
			C213.546,721.004,215.799,719.969,216.9,718.305z M223.702,725.615c0.771,8.029-1.685,14.762-4.42,21.449
			c-2.486-0.992-4.081-3.535-3.755-6.225C216.245,734.9,219.548,730.33,223.702,725.615z M209.38,766.568
			c0.189-0.029,0.379-0.059,0.569-0.088c1.47,3.416,2.98,6.818,4.396,10.258c0.803,1.953,0.565,3.848-0.948,6.025
			C213.113,776.826,208.867,772.277,209.38,766.568z"/>
		<path d="M283.891,738.314c2.635,1.984,5.083,1.758,7.75-0.186c2.578-1.875,4.221-4.49,5.638-7.242
			c-2.229-2.35-2.291-2.363-4.72-1.037c-4.52,2.465-5.528,2.369-9.486-0.963c-0.665-0.561-1.296-1.166-1.892-1.799
			c-3.21-3.404-5.235-7.531-7.189-11.717c-0.558-1.195-0.41-2.068,0.294-3.082c1.869-2.691,4.646-4.041,7.505-5.324
			c2.379-1.066,4.722-2.219,7.075-3.344c1.163-0.555,1.7-1.455,1.823-2.781c0.275-2.975,0.707-5.934,1.067-8.898
			c0.81-6.682,0.82-6.631,7.436-8.299c1.594-0.402,3.305-0.977,4.53-1.994c0.907-0.754,1.397-2.328,1.491-3.58
			c0.037-0.488-1.495-1.512-2.359-1.568c-2.57-0.168-5.169-0.057-7.745,0.119c-1.005,0.068-1.46-0.193-2.109-0.967
			c-2.063-2.457-4.092-5.029-6.551-7.051c-4.354-3.582-9.486-5.9-14.791-7.754c-7.018-2.451-14.213-3.766-21.639-2.432
			c-5.73,1.029-10.06,4.029-12.555,9.988c3.125,1.254,5.912,2.729,8.882,3.494c7.826,2.018,15.734,3.705,23.601,5.564
			c5.165,1.219,10.17,2.852,14.634,5.857c0.88,0.592,1.234,1.188,1.074,2.287c-0.466,3.201-0.751,6.43-1.24,9.629
			c-0.103,0.672-0.63,1.486-1.205,1.85c-5.316,3.352-10.676,6.633-16.039,9.908c-8.405,5.135-17.02,9.836-26.497,12.742
			c-0.484,0.148-0.958,0.33-1.437,0.498c0.036,0.219,0.073,0.436,0.11,0.654c2.042-0.232,4.16-0.201,6.108-0.76
			c2.735-0.787,5.329-2.055,8.014-3.031c1.656-0.604,3.369-1.051,5.14-1.594c0.46,1.58,0.785,2.84,1.197,4.07
			c0.588,1.754,1.422,2.172,3.081,1.328c1.253-0.635,2.362-1.557,3.7-2.463c1.335,1.449,2.788,2.822,4.004,4.381
			c2.485,3.191,4.716,6.586,7.298,9.691C279.66,734.643,281.681,736.65,283.891,738.314z M250.256,664.961
			c4.962,0.902,10.431-1.131,14.896,2.662C260.189,666.723,254.736,668.672,250.256,664.961z"/>
		<path d="M330.116,686.166c0.983,1.186,2.207,2.182,3.368,3.211c1.672,1.482,3.389,2.916,5.065,4.354
			c4.922-1.502,9.743-3.188,14.673-4.436c11.732-2.967,23.588-3.77,35.447-0.814c3.599,0.895,7.017,2.5,10.552,3.68
			c3.436,1.146,6.86,1.58,10.346-0.094c1.596-0.768,1.978-1.619,1.597-3.305c-1.744-7.703-6.175-13.523-12.948-17.229
			c-18.568-10.156-37.819-10.699-57.395-3.148c-4.096,1.58-7.618,4.201-10.524,7.561
			C327.277,679.438,327.171,682.613,330.116,686.166z M402.639,685.73c-2.561-0.826-5.152-1.645-7.73-2.504
			c-1.526-0.51-1.426-1.801-1.418-3.152C398.61,679.408,403.184,682.439,402.639,685.73z M339.716,678.389
			c1.042-1.115,2.29-2.154,3.641-2.846c6.857-3.506,14.409-4.398,21.484-5.689c0.421,3.441,0.824,6.732,1.265,10.326
			c-1.289-0.156-2.49-0.398-3.697-0.43c-3.467-0.096-6.744,0.719-9.969,1.996c-3.043,1.207-6.143,2.432-9.333,3.039
			c-1.693,0.324-4.512-0.053-5.25-1.16C336.781,682.012,338.35,679.854,339.716,678.389z"/>
		<path d="M412.998,704.502c-11.047,2.947-21.071,1.387-29.211-7.479c-1.712-1.861-3.737-3.471-5.765-4.998
			c-1.248-0.941-2.777-1.506-4.25-2.277c-1.077,4.35,0.197,9.34,3.754,12.58c2.482,2.26,5.383,4.291,8.443,5.643
			c8.603,3.797,17.784,4.563,27.069,3.951c8.58-0.566,16.909-2.137,24.185-7.189c0.369-0.256,0.944-0.332,1.413-0.303
			c5.113,0.314,10.122,1.02,14.874,3.164c12.11,5.467,15.438,20.611,9.801,29.48c-1.194,1.879-2.186,3.908-3.079,5.953
			c-0.999,2.287-1.481,4.688-0.517,7.188c7.725-4.162,13.524-13.982,13.287-22.504c-0.309-11.041-5.66-19.23-14.912-24.732
			c-10.171-6.049-21.059-7.109-32.302-3.105C421.516,701.395,417.362,703.338,412.998,704.502z"/>
		<path d="M414.797,809.6c-6.432,0.396-12.36,2.666-18.292,4.924c-26.799,10.201-54.418,17.055-82.935,20.191
			c-19.663,2.162-39.366,2.283-59.066,0.711c-12.739-1.018-25.372-2.803-37.51-7.07c-8.056-2.834-15.575-6.572-21.506-12.965
			c-1.18-1.271-1.773-2.496-1.417-4.316c0.501-2.566,0.677-5.197,0.993-7.801c-0.179-0.076-0.356-0.152-0.535-0.229
			c-0.457,0.436-1.185,0.797-1.325,1.318c-0.847,3.152-1.347,6.447,0.077,9.473c2.801,5.949,7.522,10.152,13.243,13.232
			c6.879,3.703,14.345,5.643,22.005,6.781c20.544,3.061,41.206,4.307,61.978,3.85c24.326-0.535,48.35-3.434,72.025-9.057
			c18.063-4.289,35.731-9.791,52.579-17.707c0.649-0.307,1.27-0.672,1.903-1.006c-0.024-0.113-0.051-0.223-0.076-0.336
			C416.226,809.594,415.508,809.555,414.797,809.6z"/>
		<path d="M251.148,621.223c1.754-1.023,3.442-1.059,5.352-0.635c12.205,2.693,24.373,5.59,36.653,7.893
			c11.335,2.127,22.798,2.947,34.349,1.33c19.233-2.689,37.701,0.541,55.447,8.002c15.741,6.617,28.835,17.014,40.389,29.453
			c0.585,0.629,1.174,1.254,1.76,1.883c0.112-0.104,0.223-0.207,0.334-0.311c-0.795-1.18-1.548-2.391-2.389-3.535
			c-4.413-5.994-9.478-11.373-15.329-15.986c-20.333-16.031-43.923-22.125-69.316-22.42c-11.561-0.135-23.129,0.391-34.688,0.234
			c-10.23-0.139-20.334-1.473-30.114-4.771c-5.599-1.889-11.26-3.633-17.256-3.754c-4.679-0.092-8.596,1.561-11.72,5.014
			c0.102,0.227,0.202,0.451,0.303,0.676C247.005,623.283,249.154,622.385,251.148,621.223z"/>
		<path d="M221.814,687.537c5.773,0.49,8.35,3.721,8.669,9.535c0.02,0.363,0.094,0.727,0.132,1.014
			c4.511,0.545,8.928,1.18,13.367,1.566c1.571,0.139,3.208-0.242,4.791-0.521c3.194-0.566,5.118-2.602,6.163-5.58
			c0.84-2.393,0.022-3.746-2.555-3.926c-0.884-0.061-1.862,0.182-2.687,0.541c-1.762,0.768-3.416,1.793-5.194,2.518
			c-0.547,0.223-1.613,0.053-2.002-0.355c-5.516-5.77-12.306-9.412-19.784-11.838c-4.854-1.574-9.827-2.262-14.822-0.486
			c-3.759,1.336-5.896,4.156-7.505,8.156c2.707-0.152,4.922-0.33,7.14-0.395C212.292,687.625,217.093,687.139,221.814,687.537z"/>
		<path d="M336.361,736.191c3.665,1.619,7.029,0.955,9.185-2.662c1.711-2.871,2.669-6.191,3.962-9.314
			c-0.173-0.07-0.344-0.143-0.517-0.213c0.746-6.059,0.6-7.111-5.366-10.385c-2.458-1.35-5.306-2.133-8.071-2.738
			c-2.774-0.607-5.487-0.045-7.413,2.365c-1.417,1.773-1.237,2.402,0.789,3.268c0.683,0.293,1.391,0.541,2.107,0.736
			c3.292,0.898,6.612,1.701,9.867,2.717c0.591,0.184,1.193,1.143,1.331,1.834c0.647,3.248-0.606,5.672-3.459,7.346
			c-1.875,1.1-3.41,2.484-3.61,4.883C335.078,735.076,335.288,735.717,336.361,736.191z"/>
		<path d="M399.091,807.732c0.002-0.164,0.006-0.324,0.01-0.488c-3.124,0.412-6.355,0.447-9.351,1.305
			c-9.673,2.764-19.312,5.672-28.864,8.824c-11.398,3.76-22.749,7.635-34.595,9.799c-13.854,2.531-27.757,1.859-41.671,0.709
			c-7.066-0.584-14.135-1.154-21.202-1.73c5.106,0.703,10.21,1.389,15.33,1.922c5.01,0.523,10.041,0.844,15.053,1.348
			c2.782,0.277,5.534,0.879,8.318,1.109c12.22,1.016,24.344-0.146,36.017-3.596C358.561,820.896,378.782,814.17,399.091,807.732z"/>
		<path d="M199.732,718.549c0.246,0.16,0.503,0.299,0.763,0.453c0.848-2.086,0.289-3.68-1.517-4.713
			c-2.58-1.479-5.144-3.043-7.875-4.188c-4.785-2.006-7.101-5.33-7.704-10.572c-1.813-15.752,5.038-27.369,19.4-32.016
			c8.951-2.895,18.013-2.582,27.105-0.734c1.184,0.24,2.368,0.471,3.552,0.705c0.063-0.125,0.125-0.25,0.186-0.375
			c-0.592-0.486-1.146-1.033-1.785-1.447c-2.2-1.424-4.675-1.553-7.193-1.428c-5.41,0.268-10.807,0.533-16.119-1.027
			c-1.116-0.328-2.478-0.342-3.601-0.035c-16.043,4.361-25.685,19.279-23.998,36.197c0.632,6.334,3.329,10.383,9.102,12.996
			C193.501,713.93,196.518,716.457,199.732,718.549z"/>
		<path d="M332.406,728.008c0.714-3.234,0.641-3.275-2.398-4.391c-5.382-1.979-10.892-3.02-16.643-2.131
			c-3.575,0.553-5.924,2.471-6.627,5.51c0.875,0.373,1.748,0.973,2.686,1.102c2.758,0.383,5.537,0.711,8.318,0.814
			c4.503,0.17,9.014,0.143,12.863,4.23C331.331,731.113,332.054,729.6,332.406,728.008z"/>
		<path d="M407.004,661.344c2.319,2.529,4.184,5.475,6.21,8.168c-0.89-4.316-3.293-7.936-6.409-11.133
			c-4.315-4.428-9.529-7.553-15.079-10.15c-13.751-6.434-28.332-9.152-43.409-9.6c-2.143-0.064-4.29-0.023-6.434-0.031
			c0.001,0.117,0.003,0.232,0.005,0.348c0.6,0.072,1.199,0.166,1.801,0.215c14.194,1.164,28.132,3.553,41.518,8.611
			C393.369,650.855,401.023,654.82,407.004,661.344z"/>
		<path d="M284.517,637.291c4.044,1.301,7.927,3.105,11.905,4.691c1.351-1.959,1.241-2.475-0.923-3.6
			c-0.658-0.344-1.352-0.641-2.062-0.854c-3.57-1.066-7.114-2.252-10.735-3.111c-10.869-2.578-21.723-2.705-32.668-0.066
			c-7.409,1.785-9.885,7.346-11.526,13.768c0.135-0.191,0.3-0.369,0.401-0.578c3.595-7.416,9.913-11.092,17.664-12.596
			C266.081,633.102,275.41,634.361,284.517,637.291z"/>
		<path d="M210.843,802.23c0.221,3.238,1.016,5.865,2.537,8.268c3.642,5.764,9.33,8.586,15.5,10.625
			c10.125,3.344,20.697,4.061,31.456,5.203c-6.369-1.373-12.625-2.449-18.729-4.09C229.373,818.947,217.75,814.527,210.843,802.23z"
			/>
		<path d="M462.87,695.979c9.44,2.063,16.141,7.486,19.375,16.752c0.556,1.594,0.865,3.416,0.726,5.084
			c-0.423,5.016-1.148,10.004-1.694,15.008c-0.087,0.811,0.137,1.652,0.217,2.479c0.201-0.008,0.403-0.016,0.606-0.023
			c1.169-5.213,2.041-10.471,1.834-15.85c-0.358-9.355-3.615-17.219-12.305-21.748c-3.314-1.729-6.992-3.016-10.656-3.756
			c-4.961-1.004-10.069-1.291-15.114-1.887c-0.041,0.258-0.081,0.514-0.123,0.77c0.872,0.203,1.736,0.443,2.616,0.6
			C453.192,694.264,458.072,694.932,462.87,695.979z"/>
		<path d="M275.912,816.877c-8.209-0.924-16.405-1.969-24.606-2.963c-0.015,0.162-0.029,0.322-0.043,0.48
			c16.617,4.707,33.966,4.094,50.876,6.742c-3.299-1.947-6.92-2.516-10.648-2.807C286.291,817.926,281.094,817.461,275.912,816.877z
			"/>
		<path d="M481.23,735.574c-0.196,0.031-0.395,0.063-0.592,0.092c-2.875,11.828-8.429,20.971-22.214,22.127
			c1.914,0.344,3.79,0.645,5.358,0.084c4.192-1.496,8.261-3.34,12.348-5.117c0.424-0.184,0.779-0.791,0.938-1.277
			c1.495-4.535,2.975-9.074,4.359-13.643C481.633,737.166,481.31,736.334,481.23,735.574z"/>
		<path d="M192.952,695.119c0.257-0.807,0.62-1.596,0.749-2.422c0.358-2.27,0.712-4.547,0.897-6.836
			c0.414-5.139,2.689-8.68,7.964-9.914c1.197-0.279,2.375-0.773,3.458-1.361c1.059-0.574,1.984-1.393,2.969-2.105
			c-0.166-0.285-0.331-0.57-0.497-0.854c-4.111,1.51-8.235,2.986-12.315,4.574c-0.588,0.229-1.262,0.934-1.393,1.531
			c-1.054,4.795-2.043,9.605-2.909,14.439c-0.167,0.938,0.288,1.99,0.457,2.99C192.538,695.15,192.745,695.135,192.952,695.119z"/>
		<path d="M362.95,723.225c5.125,0.334,10.317,0.148,15.074,3.182c0.238-1.652-0.104-2.773-1.63-3.002
			c-3.921-0.586-7.87-0.992-11.791-1.586c-2.996-0.455-5.99-0.979-8.934-1.686c-1.604-0.385-2.773-1.668-2.818-3.336
			c-0.021-0.779,0.945-1.582,1.466-2.379c-1.668-1.156-2.925-0.602-3.118,1.633c-0.245,2.838,1.116,5.092,4.063,5.902
			C357.755,722.641,360.366,723.057,362.95,723.225z"/>
		<path d="M416.066,685.287c1.487,0.846,2.916,1.834,4.48,2.5c1.606,0.684,3.35,1.057,5.205,1.615
			c-2.151,2.061-4.581,0.77-7.188,0.926c2.707,2.322,5.435,2.785,8.402,1.953c1.904-0.533,3.341-1.652,3.846-3.301
			c-4.958-1.572-9.678-3.07-14.398-4.568C416.297,684.705,416.181,684.996,416.066,685.287z"/>
		<path d="M336.958,659.809c0.349-1.852,0.764-3.24,0.842-4.643c0.129-2.354,0.927-4.434,2.53-6.051
			c2.198-2.221,4.615-4.221,6.972-6.348c-1.114-1.07-2.499-1.234-3.911,0.176c-1.624,1.621-3.209,3.283-4.845,4.895
			C336.033,650.313,335.117,655.98,336.958,659.809z"/>
		<path d="M290.126,661.391c-0.114,1.383,0.352,2.814,0.559,4.225c0.27-0.029,0.54-0.059,0.811-0.088
			c0.559-4.613,1.125-9.229,1.662-13.846c0.04-0.342-0.053-0.746-0.211-1.059c-0.948-1.871-1.935-3.725-2.98-5.725
			c-0.792,0.129-1.667,0.273-2.934,0.482c1.193,1.803,2.073,3.375,3.188,4.758c1.394,1.727,1.566,3.561,1.076,5.604
			C290.847,657.615,290.283,659.488,290.126,661.391z"/>
		<path d="M200.564,706.574c-2.945-3.578-5.87-7.135-8.813-10.713C191.417,701.779,195.166,706.342,200.564,706.574z"/>
		<path d="M414.621,693.24c-0.08,0.184-0.16,0.367-0.24,0.551c1.653,1.006,3.305,2.01,4.958,3.016
			C418.633,693.809,416.91,692.729,414.621,693.24z"/>
		<path fill="#FFFFFF" d="M348.586,777.674c0.117-0.604,0.154-1.221,0.268-2.156c-11.644,2.932-23.014,5.895-35.36,6.008
			c-0.492,7.426-0.979,14.76-1.493,22.521c2.428,0.471,5.15,1.422,7.877,1.438c4.767,0.027,9.57-0.271,14.297-0.893
			c6.265-0.82,12.472-2.084,18.825-3.178c-0.051-0.771,0.024-1.475-0.16-2.102c-0.886-3.035-1.626-6.139-2.824-9.049
			C348.328,786.154,347.74,782.023,348.586,777.674z"/>
		<path fill="#FFFFFF" d="M391.781,765.24c-0.529,0.158-0.887,0.244-1.231,0.369c-10.751,3.945-21.654,7.311-33.05,8.875
			c-0.552,0.076-1.287,0.883-1.44,1.479c-1.143,4.453,0.146,8.553,1.807,12.666c1.287,3.184,2.16,6.533,3.311,10.1
			c11.699-3.744,22.048-11.174,33.683-16.186C390.74,777.195,390.292,771.441,391.781,765.24z"/>
		<path fill="#FFFFFF" d="M354.286,761.414c5.893-1.043,11.661-1.908,17.357-3.117c4.718-1,9.445-2.127,13.994-3.705
			c4.888-1.695,8.079-5.438,9.942-10.242c0.563-1.451,0.897-2.99,1.513-5.094c-15.031,2.439-29.47,4.779-44.039,7.143
			C353.476,751.551,353.89,756.6,354.286,761.414z"/>
		<path fill="#FFFFFF" d="M310.363,753.373c-0.3,3.096-0.726,6.178-1.097,9.264c-0.313,2.609-0.288,2.498,2.257,3.029
			c11.852,2.479,23.464-0.92,35.328-1.256c-0.437-5.158-0.863-10.203-1.301-15.383c-0.837-0.02-1.446-0.092-2.047-0.043
			c-10.401,0.816-20.799,1.66-31.201,2.455C311.001,751.537,310.487,752.092,310.363,753.373z"/>
		<path fill="#FFFFFF" d="M279.122,782.582c0.378,6.984,0.742,13.711,1.113,20.578c8.44,0.773,16.664,3.229,25.271,1.516
			c-2.059-7.592,0.851-14.699,1.355-22.209C297.565,783.99,288.446,784.463,279.122,782.582z"/>
		<path fill="#FFFFFF" d="M420.091,731.092c-4.484,1.828-8.979,3.637-13.537,5.268c-2.646,0.947-2.741,0.809-2.852,3.664
			c-0.134,3.443,0.157,6.939-1.682,10.395c1.88-0.102,3.481-0.146,5.075-0.285c7.719-0.67,15.097-2.447,21.535-7.014
			c5.438-3.857,8.605-9.115,9.557-15.938c-0.73-0.088-1.157-0.164-1.587-0.186c-0.496-0.025-0.994-0.018-1.489,0.004
			C429.797,727.23,424.937,729.113,420.091,731.092z"/>
		<path fill="#FFFFFF" d="M250.27,742.473c-1.618,4.082-3.14,7.926-4.752,11.996c0.637,0.303,1.676,0.832,2.743,1.297
			c6.768,2.945,14.026,3.637,21.22,4.67c1.755,0.252,2.14-0.369,2.173-1.932c0.064-2.932-0.436-5.994,1.875-8.51
			C266.092,746.342,257.458,747.543,250.27,742.473z"/>
		<path fill="#FFFFFF" d="M253.414,781.361c0.156,0.713,0.276,1.447,0.478,2.158c1.389,4.895,2.786,9.789,4.215,14.672
			c0.107,0.365,0.418,0.801,0.749,0.949c4.47,2.021,9.19,2.924,14.643,3.205c-0.527-4.201-0.602-8.289-1.616-12.127
			C269.881,782.645,260.923,778.516,253.414,781.361z"/>
		<path fill="#FFFFFF" d="M279.829,761.68c6.866,0.756,13.718,1.633,20.577,2.455c0.525,0.063,1.061,0.035,1.595,0.049
			c0.55-4.541,1.08-8.91,1.651-13.627c-7.459,0.018-14.688,0.037-21.874,0.057c-0.707,1.594-1.56,3.439-2.346,5.316
			c-0.478,1.139-0.892,2.309-1.261,3.488C277.715,760.875,278.246,761.506,279.829,761.68z"/>
		<path fill="#FFFFFF" d="M420.466,756.287c-0.806,0.006-1.616,0.014-2.417,0.098c-5.857,0.613-11.354,2.211-15.842,6.244
			c-3.982,3.58-4.957,8.982-2.446,13.496c1.173-0.445,2.42-0.816,3.576-1.375c3.564-1.723,6.092-4.635,8.595-7.586
			c3.077-3.629,6.219-7.197,9.331-10.789C421.195,756.365,420.83,756.283,420.466,756.287z"/>
		<path fill="#FFFFFF" d="M229.164,751.092c3.281,1.264,6.142,2.367,9.304,3.586c-1.675-3.354-0.038-5.938,1.741-8.59
			c0.95-1.414,1.579-3.063,2.201-4.666c0.153-0.395-0.147-1.354-0.474-1.49c-3.513-1.469-6.732-3.357-9.382-6.371
			C226.663,738.939,229.198,745.488,229.164,751.092z"/>
		<path fill="#FFFFFF" d="M246.115,781.076c-3.838-1.482-7.445-2.875-11.051-4.268c-0.166,0.211-0.331,0.422-0.496,0.633
			c1.101,2.477,2.199,4.955,3.301,7.432c1.224,2.75,2.521,5.496,0.379,8.416c3.289,2.715,7.157,3.371,11.174,4.406
			C248.919,791.734,245.419,786.664,246.115,781.076z"/>
		<path fill="#FFFFFF" d="M222.849,772.047c-1.269,1.516-1.271,3.018-0.877,4.557c0.398,1.559,0.99,3.074,1.315,4.648
			c0.611,2.957-0.389,4.291-3.352,4.393c-0.762,0.025-1.545-0.557-2.319-0.859c3.068,4.645,8.473,4.941,13.381,7.234
			C229.464,784.541,227.674,777.775,222.849,772.047z"/>
		<path fill="#FFFFFF" d="M219.282,747.064c2.735-6.688,5.191-13.42,4.42-21.449c-4.153,4.715-7.457,9.285-8.175,15.225
			C215.201,743.529,216.796,746.072,219.282,747.064z"/>
		<path fill="#FFFFFF" d="M213.397,782.764c1.513-2.178,1.751-4.072,0.948-6.025c-1.416-3.439-2.926-6.842-4.396-10.258
			c-0.189,0.029-0.379,0.059-0.569,0.088C208.867,772.277,213.113,776.826,213.397,782.764z"/>
		<path fill="#FFFFFF" d="M213.897,723.459c0.286,0.121,0.571,0.24,0.856,0.361c0.91-1.734,1.819-3.471,2.729-5.207
			c-0.194-0.102-0.389-0.205-0.583-0.309C215.799,719.969,213.546,721.004,213.897,723.459z"/>
		<path fill="#FFFFFF" d="M250.256,664.961c4.479,3.711,9.933,1.762,14.896,2.662C260.687,663.83,255.219,665.863,250.256,664.961z"
			/>
		<path fill="#FFFFFF" d="M343.106,684.785c3.19-0.607,6.289-1.832,9.333-3.039c3.225-1.277,6.502-2.092,9.969-1.996
			c1.207,0.031,2.408,0.273,3.697,0.43c-0.44-3.594-0.844-6.885-1.265-10.326c-7.075,1.291-14.627,2.184-21.484,5.689
			c-1.352,0.691-2.6,1.73-3.641,2.846c-1.366,1.465-2.935,3.623-1.859,5.236C338.594,684.732,341.414,685.109,343.106,684.785z"/>
		<path fill="#FFFFFF" d="M394.909,683.227c2.578,0.859,5.169,1.678,7.73,2.504c0.545-3.291-4.028-6.322-9.148-5.656
			C393.483,681.426,393.382,682.717,394.909,683.227z"/>
	</g>
	<path d="M842.859,530.98c3.716-53.218-2.429-105.05-26.021-153.42c-14.449-29.632-29.933-58.961-47.556-86.782
		c-14.104-22.272-31.512-42.583-48.632-62.769c-11.192-13.192-23.547-25.8-37.132-36.433c-11.155-8.726-6.632-14.518-0.107-21.737
		c15.323-16.95,35.264-20.263,56.463-17.968c26.097,2.822,47.246-10.647,50.881-34.889c-12.397,4.051-24.281,7.934-36.137,11.807
		c9.057-0.715,18.167-1.433,28.178-2.223c-18.167,21.36-18.162,20.039-42.81,19.997c-26.629-0.049-53.344,2.497-67.586,30.927
		c-0.237,0.469-2.546-0.096-4.914-0.246c10.198-25.11,32.145-31.97,55.754-38.672c-3.659-1.71-6.726-4.504-8.904-3.932
		c-11.242,2.961-23.046,5.299-33.172,10.657c-15.422,8.162-29.483,13.185-43.724-1.301c-1.004-1.024-2.958-2.207-4.052-1.888
		c-0.801,0.234-1.584,0.431-2.35,0.592c-0.293,0.062-0.572,0.093-0.86,0.145c-0.463,0.083-0.932,0.175-1.383,0.23
		c-0.364,0.045-0.713,0.056-1.07,0.084c-0.357,0.027-0.723,0.071-1.071,0.081c-0.395,0.012-0.771-0.009-1.156-0.019
		c-0.295-0.007-0.599,0.002-0.889-0.017c-0.413-0.028-0.81-0.088-1.211-0.141c-0.246-0.032-0.499-0.048-0.74-0.089
		c-0.426-0.072-0.837-0.176-1.249-0.276c-0.203-0.049-0.412-0.084-0.612-0.14c-0.435-0.121-0.854-0.272-1.274-0.423
		c-0.166-0.06-0.338-0.106-0.5-0.17c-0.439-0.172-0.866-0.374-1.291-0.579c-0.134-0.063-0.271-0.117-0.403-0.185
		c-0.442-0.227-0.872-0.48-1.299-0.741c-0.104-0.063-0.213-0.119-0.316-0.184c-0.442-0.282-0.874-0.59-1.299-0.908
		c-0.08-0.059-0.163-0.112-0.243-0.173c-0.44-0.338-0.868-0.7-1.291-1.075c-0.06-0.053-0.122-0.101-0.183-0.154
		c-0.435-0.394-0.859-0.811-1.278-1.242c-0.041-0.043-0.086-0.083-0.127-0.127c-0.432-0.45-0.853-0.923-1.266-1.412
		c-0.027-0.03-0.053-0.059-0.08-0.09c-0.423-0.503-0.836-1.028-1.242-1.57c-0.015-0.02-0.03-0.038-0.045-0.057
		c-0.414-0.556-0.819-1.131-1.217-1.724c-0.006-0.007-0.012-0.015-0.016-0.022c-0.404-0.602-0.798-1.223-1.185-1.861
		c-10.912,0.889-21.967,3.318-32.704,2.318c-35.073-3.271-65.646,4.902-88.56,32.856c-13.502,16.468-27.757,29.656-51.17,26.168
		c-1.371-0.204-2.864,0.433-4.518,1.191c0.033,0.01,0.066,0.018,0.1,0.028c0.802,0.233,1.595,0.452,2.378,0.65
		c0.003,0,0.006,0.001,0.008,0.002c20.407,5.167,34.64-1.512,45.978-11.876c0.015-0.014,0.028-0.027,0.043-0.041
		c0.891-0.816,1.766-1.655,2.622-2.513c0.112-0.112,0.221-0.226,0.332-0.338c0.323-0.326,0.646-0.653,0.964-0.984
		c0.148-0.154,0.293-0.312,0.441-0.467c0.276-0.293,0.556-0.585,0.829-0.881c0.171-0.184,0.337-0.371,0.506-0.555
		c0.666-0.729,1.324-1.464,1.972-2.209c25.494-29.333,55.861-40.01,93.789-32.653c26.246,5.091,35.611,13.899,39.384,38.979
		c-32.244,1.448-64.745,2.909-97.247,4.37c0.097,2.157,0.186,4.315,0.281,6.472c20.032-1.238,40.097-3.765,60.093-3.332
		c18.024,0.393,35.979,4.023,53.959,6.227c-0.232,1.847-0.467,3.692-0.704,5.54c-5.712-1.083-11.419-2.202-17.142-3.245
		c-33.473-6.098-66.825-10.266-98.351,7.792c-12.386,7.097-24.441,14.408-39.886,10.581c-16.189-4.009-34.147-3.185-50.439-21.505
		c-0.964,0.443-1.98,0.922-3.061,1.298c6.514,20.684,25.26,20.213,40.274,23.349c20.396,4.259,40.909,4.077,58.326-11.488
		c14.688-13.128,33.636-8.548,50.742-8.904c17.252-0.357,34.656,2.503,51.83,5.021c5.538,0.811,12.971,3.604,15.474,7.873
		c34.063,58.098,55.062,119.577,34.714,187.022c-4.668,15.473-21.591,27.285-33.121,40.562c-0.686,0.792-3.845,0.533-5.14-0.341
		c0.133-0.458,0.14-1.035-0.066-1.791c-1.26-4.618-0.75-14.397-0.75-14.397l-3.683-10.286l-8.088,3.094l-7.547,7.579l-17.025,18.801
		c-25.339,31.228-65.689,36.875-97.496,57.122c-26.442,16.826-53.645,32.468-79.954,49.498
		c-27.642,17.885-53.839,38.139-82.223,54.691c-2.627,1.531-5.382,2.945-8.228,4.242c3.839,0.357,7.675,0.768,11.507,1.23
		c9.407-4.527,18.4-10.145,27.022-16.865c16.893-13.164,34.962-24.824,51.747-38.119c40.057-31.734,86.275-52.81,132.191-73.411
		c18.373-8.244,32.238-18.811,44.907-32.875c1.523-0.543,14.936-18.417,14.936-18.417s10.405-10.754,12.173-11.815
		c1.766-1.06,5.148-1.925,6.622,2.441c1.474,4.366-0.424,12.51-0.424,12.51l-0.375,5.097c-0.126,0.974-0.217,1.948-0.216,2.921
		c-0.003,1.526,9.972,5.685,11.983,4.167c39.507-29.875,70.068-65.539,72.443-118.277c0.109-2.472,0.937-5.058,0.454-7.389
		c-1.229-5.977-3.007-11.838-5.426-17.82c-0.846,21.702,2.704,44.738-22.72,61.088c4.259-48.627-13.586-89.603-27.938-130.373
		c2.577-6.644,5.09-13.115,7.624-19.653c4.285,4.152,8.387,8.128,12.487,12.105c1.071-0.965,2.135-1.927,3.205-2.887
		c-18.995-21.818-37.99-43.639-56.983-65.456c46.848,38.383,92.291,78.089,127.897,127.303
		c35.459,49.007,63.225,101.983,74.792,162.037c12.786,66.372,7.878,130.312-22.143,192.585
		c-14.957,31.025-33.521,57.854-58.27,81.053c-1.004,0.945-2.273,1.596-5.235,0.955c2.263-3.109,4.354-6.367,6.843-9.285
		c2.823-3.32,6.002-6.338,7.919-10.746c-26.728,23.818-48.121,54.076-83.968,66.816c7.53-6.52,15.267-12.828,22.423-19.729
		c0.185-0.18,0.344-0.387,0.479-0.615c0.051-0.086,0.085-0.189,0.131-0.281c0.074-0.154,0.155-0.301,0.215-0.471
		c0.045-0.125,0.074-0.266,0.111-0.396c0.043-0.154,0.094-0.303,0.128-0.467c0.034-0.16,0.058-0.332,0.085-0.498
		c0.025-0.15,0.055-0.295,0.076-0.447c0.027-0.207,0.046-0.422,0.068-0.635c0.012-0.123,0.027-0.24,0.039-0.363
		c0.061-0.684,0.104-1.383,0.164-2.064c0.007-0.074,0.017-0.143,0.024-0.215c0.023-0.248,0.05-0.496,0.082-0.734
		c0.003-0.025,0.005-0.053,0.009-0.078c-16.744,13.787-33.486,27.574-50.226,41.361c-0.774-0.865-1.543-1.732-2.315-2.6
		c4.899-6.145,9.798-12.285,14.697-18.426c-14.568,10.26-29.528,20.008-43.615,30.887c-21.663,16.727-46.036,26.088-76.529,31.521
		c12.016-5.715,20.367-9.691,28.72-13.664c-17.322,3.955-33.105,12.068-49.858,16.66c-28.938,7.93-58.27,14.904-87.838,19.881
		c-1.123,0.188-2.247,0.357-3.376,0.516c-0.348,0.047-0.698,0.086-1.048,0.131c-0.782,0.104-1.564,0.205-2.349,0.293
		c-0.397,0.047-0.797,0.08-1.195,0.121c-0.74,0.076-1.479,0.156-2.221,0.221c-0.401,0.037-0.804,0.064-1.205,0.096
		c-0.746,0.063-1.491,0.123-2.238,0.174c-0.375,0.025-0.752,0.045-1.127,0.068c-0.779,0.049-1.559,0.096-2.339,0.135
		c-0.335,0.018-0.672,0.029-1.009,0.045c-0.831,0.039-1.662,0.072-2.494,0.104c-0.268,0.008-0.536,0.016-0.805,0.023
		c-0.915,0.029-1.829,0.055-2.744,0.076c-0.164,0.004-0.327,0.006-0.49,0.01c-9.748,0.199-19.569-0.027-29.31,0.227
		c-0.012,0-0.024,0-0.036,0c-0.734,0.195-1.471,0.389-2.208,0.582c-0.324-0.039-0.648-0.074-0.973-0.113
		c-0.002,0.002-0.004,0.002-0.006,0.002c-6.437,1.93-16.143,2.934-27.399,3.064c-4.086,1.457-8.151,2.975-12.19,4.553
		c4.419,0.152,8.833,0.178,13.242,0.002c34.992-1.385,69.887-5.576,104.771-9.115c22.536-2.285,45.223-4.279,67.367-8.762
		c17.301-3.5,34.065-10.082,50.713-16.258c24.104-8.945,48.315-17.822,71.689-28.471c22.229-10.121,44.727-20.596,64.764-34.336
		c23.015-15.787,45.039-33.791,64.475-53.766c14.38-14.777,25.262-33.521,35.356-51.795
		C830.412,613.656,839.916,573.094,842.859,530.98z"/>
</g>
</svg>
